<svg xmlns="http://www.w3.org/2000/svg" viewBox="0 0 397.26 358.47"><defs><style>.cls-1{fill:#bed630;}.cls-2{fill:#010101;stroke:#bed630;stroke-miterlimit:10;stroke-width:2px;}</style></defs><g id="Layer_2_copy" data-name="Layer 2 copy"><path class="cls-1" d="M105.5,245.48a2.73,2.73,0,0,1,5-1.53c36.33,56.07,57.23,110,121,165.09L252,400.68l9-38c1.22-4.67,7.39.18,9.82.89C300.59,322.94,300.5,323,289.31,372c2,1.57,11.78,3.24,9.7,7.36-.3.67-19.31,27.34-19.68,28l9.37,34.47,84.72,42.05L493,504.35a2.72,2.72,0,0,1,1.21,4.83l-52.68,45c-.91,1.22-68.61,13-69.88,13.56-2.69-.33-84.9-15.55-87.24-17l-39-31.81,13.53,64.28a2.72,2.72,0,0,1-1.91,3.16l-38.78,12.44a2.72,2.72,0,0,1-1.41.07h0l-62.14-13.68a2.74,2.74,0,0,1-1.84-1.43c-.48-1.17-31.24-50-31.42-51.34h0l-7.44-38.87a2.71,2.71,0,0,1,2-3.13l66.63-17.88L134,435.7a2.74,2.74,0,0,1-1.78-1l-31.58-36.37a2.73,2.73,0,0,1-.66-1.9c1.78-35.64,4.47-114.7,5.51-151Z" transform="translate(-98.98 -241.7)"/><polygon class="cls-1" points="67.31 328.6 132.77 276.21 97.01 281.93 67.3 328.6 67.31 328.6"/><polygon class="cls-1" points="141.35 269.34 142.85 268.14 175.97 215.36 105.05 275.15 141.35 269.34"/><polygon class="cls-1" points="142.05 283.06 122.43 350.44 154.1 340.27 142.05 283.06 142.05 283.06"/><polygon class="cls-1" points="116.5 351.38 137.48 279.37 62.39 339.47 116.5 351.38"/><polygon class="cls-1" points="88.23 242.38 64.33 323.18 92.95 278.21 88.23 242.38 88.23 242.38"/><polygon class="cls-1" points="55.38 334.31 82.97 241.02 28.56 290.76 55.38 334.31 55.38 334.31"/><polygon class="cls-1" points="26.83 285.01 78.3 237.95 20.78 253.39 26.83 285.01 26.83 285.01"/><polygon class="cls-1" points="187.34 303.66 261.72 249.94 149.95 273.19 187.34 303.66 187.34 303.66"/><polygon class="cls-1" points="149.5 267.74 265.37 243.65 188.55 205.52 149.5 267.74 149.5 267.74"/><polygon class="cls-1" points="270.8 250.07 193.92 305.6 269.51 320.11 270.79 250.07 270.8 250.07 270.8 250.07"/><polygon class="cls-1" points="335.16 308.74 276.2 251.03 274.94 320.11 335.16 308.74"/><polygon class="cls-1" points="281.73 248.86 340.91 306.76 387.4 267.04 281.73 248.86 281.73 248.86"/><path class="cls-1" d="M275.92,365.9l8.33,3.76,4.58-21s-12.9,17.26-12.91,17.26Z" transform="translate(-98.98 -241.7)"/><path class="cls-1" d="M285.18,376.05c-3.86-1.74-16-7.23-19.63-8.87L257,403.06l-.22,16.33,17.56-14.47,18.06-25.59-7.25-3.27Z" transform="translate(-98.98 -241.7)"/><polygon class="cls-1" points="122.54 187.51 92.42 232.77 96.95 267.07 122.54 187.51 122.54 187.51"/><path class="cls-1" d="M281.76,444.25l-50.12-28.79-31.35,97.47,81.47-68.68Z" transform="translate(-98.98 -241.7)"/><polygon class="cls-1" points="138.4 170.8 152.4 178.84 152.58 165.03 138.4 170.8 138.4 170.8"/><polygon class="cls-1" points="159.79 183.09 183.14 196.5 175.89 169.82 159.79 183.09 159.79 183.09"/><path class="cls-1" d="M185.08,467.75,171.49,359.33l-33.6,72.53,47.19,35.89Z" transform="translate(-98.98 -241.7)"/><path class="cls-1" d="M226.47,412A309,309,0,0,1,177,359.61l13.36,106.61L226.47,412Z" transform="translate(-98.98 -241.7)"/><polygon class="cls-1" points="6.67 149.64 67.14 109.23 8.93 97.22 6.66 149.63 6.67 149.64 6.67 149.64"/><path class="cls-1" d="M166.16,344.56c-20.08-29.14-36.66-60.12-55.51-90.23l-2.53,79.1C117.24,335.31,150.07,340.53,166.16,344.56Z" transform="translate(-98.98 -241.7)"/><polygon class="cls-1" points="34.69 186.38 67.52 115.5 7.8 155.4 34.7 186.38 34.69 186.38 34.69 186.38"/></g><g id="Layer_2" data-name="Layer 2"><path class="cls-2" d="M105.5,245.48a2.72,2.72,0,0,1,5-1.53c9,14.1,17.38,28.18,25.63,42.13,5.91,10,14.46,26.69,36.27,57.92,11.72,16.81,30.34,40.13,59,65L252,400.68l9-38a2.71,2.71,0,0,1,3.27-2,3,3,0,0,1,.62.23l5.93,2.68,21.09-28.2a2.72,2.72,0,0,1,4.85,2.18L289.31,372l8.34,3.77a2.72,2.72,0,0,1,1.36,3.59,2.54,2.54,0,0,1-.3.51l-19.38,27.45,9.37,34.47,84.72,42.05L493,504.35a2.72,2.72,0,0,1,1.21,4.83l-52.68,45a2.64,2.64,0,0,1-1.27.61l-68.61,13a2.8,2.8,0,0,1-1,0l-84.92-16.31a2.71,2.71,0,0,1-1.32-.66l-39-31.81,13.53,64.28a2.72,2.72,0,0,1-1.91,3.16l-38.78,12.44a2.72,2.72,0,0,1-1.41.07h0l-62.14-13.68a2.74,2.74,0,0,1-1.84-1.43L121.74,533.4a2.75,2.75,0,0,1-.36-.92h0l-7.44-38.87a2.71,2.71,0,0,1,2-3.13l66.63-17.88L134,435.7a2.79,2.79,0,0,1-1.78-1l-31.58-36.37a2.73,2.73,0,0,1-.66-1.9l2.64-60.94,2.87-90ZM166.28,570.3l65.47-52.39L196,523.63,166.27,570.3ZM240.33,511l1.49-1.19,33.12-52.78L204,516.85l36.3-5.81Zm.7,13.72L221.4,592.14,253.08,582,241,524.76Zm-25.55,68.32,21-72-75.09,60.1,54.12,11.91Zm-28.28-109-23.89,80.79,28.62-45-4.73-35.82ZM154.36,576,182,482.72l-54.42,49.74L154.36,576Zm-28.56-49.3,51.48-47.06-57.53,15.44,6,31.62Zm160.52,18.66,74.37-53.72L248.92,514.89l37.4,30.48Zm-37.85-35.93,115.87-24.09-76.82-38.12-39,62.21Zm121.3-17.66L292.89,547.3l75.6,14.52,1.27-70.05Zm64.36,58.66-58.95-57.7-1.27,69.07,60.22-11.37Zm-53.42-59.88,59.17,57.91,46.49-39.73L380.71,490.56ZM275.92,365.9l8.33,3.76,4.58-21-12.9,17.25Zm9.26,10.15L285,376l-14.24-6.45-.23-.1-4.94-2.23L257,403.06l-.22,16.33,17.56-14.47,18.06-25.59-7.25-3.27Zm-63.66,53.16L191.4,474.48l4.53,34.29,25.59-79.56Zm60.24,15-29-16.65-.2-.11-20.94-12-31.35,97.47,81.47-68.68ZM237.38,412.5l14,8.05.18-13.82-14.18,5.77Zm21.39,12.29,23.35,13.41-7.25-26.68-16.1,13.27Zm-73.69,43L171.49,359.33l-33.6,72.53,47.19,35.88ZM226.47,412A309,309,0,0,1,177,359.61l13.36,106.61L226.47,412ZM105.64,391.34l60.48-40.4-58.21-12-2.27,52.41Zm60.52-46.78c-12.43-18.05-23.5-36.75-34.7-55.71-6.78-11.46-13.6-23-20.81-34.52l-2.53,79.1c9.12,1.88,41.95,7.1,58,11.13Zm-32.49,83.52,32.83-70.87-59.73,39.9,26.9,31Z" transform="translate(-98.98 -241.7)"/></g></svg>