<?xml version="1.0" encoding="UTF-8"?><svg id="b" xmlns="http://www.w3.org/2000/svg" xmlns:xlink="http://www.w3.org/1999/xlink" viewBox="0 0 4056.24 1122.11"><defs><clipPath id="e"><path d="M539.46,124.25s51.94,10.47,164.69,39.48c106.47,27.4,143.76,38.44,143.76,38.44,0,0,17.6,107.6-30.73,306.26-39.01,160.41-166.87,263.45-277.72,301.7-110.84-38.15-238.71-141.29-277.72-301.7-48.33-198.66-30.73-306.26-30.73-306.26,0,0,37.3-10.94,143.76-38.44,112.74-29.02,164.69-39.48,164.69-39.48h0Z" fill="none"/></clipPath></defs><g id="c"><path d="M849.17,208.05l-.64-3.96-3.87-1.1c-.37-.09-37.4-11.06-139.38-37.31-108.06-27.82-159.27-38.22-159.82-38.32l-1.29-.28-1.29.28c-.46.09-51.67,10.5-159.82,38.32-101.98,26.34-139,37.12-139.38,37.31l-3.87,1.1-.64,3.96c-.19,1.1-4.33,27.26-2.77,77.38,2.67,83.37,19.16,166.54,32.61,221.73,17.59,72.22,55.64,139.1,110.08,193.45,46.43,46.34,104.37,82.99,162.95,103.17l2.12.73,2.12-.73c58.68-20.26,116.53-56.93,162.95-103.27,26.06-25.98,48.45-54.81,66.51-85.76,19.72-33.71,34.36-69.91,43.57-107.69,24.32-99.85,31.13-175.67,32.61-221.73,1.57-50.12-2.58-76.27-2.77-77.38v.09h.02Z" fill="#fff"/><path d="M858.37,200.08l-.67-4.09-3.99-1.15c-.38-.09-38.63-11.42-143.95-38.53-111.6-28.73-164.5-39.48-165.07-39.58l-1.33-.29-1.33.29c-.47.09-53.38,10.85-165.07,39.58-105.32,27.21-143.57,38.34-143.95,38.53l-3.99,1.15-.67,4.09c-.19,1.15-4.47,28.16-2.86,79.92,2.76,86.1,19.79,172.02,33.68,229.01,18.17,74.59,57.47,143.66,113.69,199.79,47.95,47.86,107.8,85.72,168.31,106.56l2.19.76,2.19-.76c60.6-20.93,120.35-58.8,168.31-106.65,26.92-26.83,50.04-56.61,68.7-88.58,20.36-34.82,35.49-72.22,45.01-111.23,25.11-103.13,32.15-181.44,33.68-229.01,1.62-51.76-2.66-78.78-2.86-79.92v.09h-.01ZM382.29,699.39c-54.51-54.42-92.57-121.31-110.17-193.52-24.73-101.8-31.77-178.87-33.3-225.67-1.24-39.39,1.04-64.41,2.1-73.83,12.37-3.52,53.47-15.03,139.39-37.2,101.62-26.17,154.23-37.3,163.08-39.1,8.75,1.81,61.46,13.04,163.08,39.1,85.91,22.07,127.02,33.68,139.39,37.2,1.15,9.32,3.43,34.45,2.1,73.83-2.76,84.77-19.6,169.54-33.3,225.67-17.6,72.22-55.66,139.1-110.17,193.52-45.96,45.86-103.13,82.3-161.07,102.66-57.94-20.36-115.12-56.79-161.07-102.66h-.02Z" fill="#2d2e2e"/><g id="d" opacity=".2"><g clip-path="url(#e)"><rect x="20.08" y="2.28" width="4.47" height="188.1" fill="#010101"/><path d="M34.54,201.51c0,6.75-5.52,12.27-12.27,12.27s-12.27-5.52-12.27-12.27,5.52-12.27,12.27-12.27,12.27,5.52,12.27,12.27ZM14.46,201.51c0,4.38,3.52,7.8,7.8,7.8s7.8-3.52,7.8-7.8-3.52-7.8-7.8-7.8-7.8,3.52-7.8,7.8Z" fill="#010101"/><path d="M24.45,495.69c0,6.75-5.52,12.27-12.27,12.27s-12.18-5.52-12.18-12.27,5.52-12.27,12.18-12.27,12.27,5.52,12.27,12.27ZM4.48,495.69c0,4.28,3.43,7.8,7.71,7.8s7.8-3.52,7.8-7.8-3.52-7.8-7.8-7.8-7.71,3.52-7.71,7.8Z" fill="#010101"/><path d="M74.41,298.36c0,6.75-5.52,12.27-12.27,12.27s-12.27-5.52-12.27-12.27,5.52-12.18,12.27-12.18,12.27,5.52,12.27,12.18ZM54.33,298.36c0,4.28,3.52,7.8,7.8,7.8s7.8-3.43,7.8-7.8-3.52-7.8-7.8-7.8-7.8,3.52-7.8,7.8Z" fill="#010101"/><path d="M24.45,393.41c0,6.75-5.52,12.27-12.27,12.27s-12.18-5.52-12.18-12.27,5.52-12.27,12.18-12.27,12.27,5.52,12.27,12.27ZM4.48,393.41c0,4.38,3.43,7.8,7.71,7.8s7.8-3.52,7.8-7.8-3.52-7.8-7.8-7.8-7.71,3.43-7.71,7.8Z" fill="#010101"/><path d="M24.45,433.28c0,6.75-5.52,12.27-12.27,12.27s-12.18-5.52-12.18-12.27,5.52-12.27,12.18-12.27,12.27,5.52,12.27,12.27ZM4.48,433.28c0,4.28,3.43,7.8,7.71,7.8s7.8-3.52,7.8-7.8-3.52-7.8-7.8-7.8-7.71,3.52-7.71,7.8Z" fill="#010101"/><path d="M124.36,433.28c0,6.75-5.52,12.27-12.27,12.27s-12.27-5.52-12.27-12.27,5.52-12.27,12.27-12.27,12.27,5.52,12.27,12.27ZM104.28,433.28c0,4.28,3.52,7.8,7.8,7.8s7.8-3.52,7.8-7.8-3.52-7.8-7.8-7.8-7.8,3.52-7.8,7.8Z" fill="#010101"/><path d="M283.91,168.69c0,6.75-5.52,12.18-12.18,12.18s-12.27-5.52-12.27-12.18,5.52-12.27,12.27-12.27,12.18,5.52,12.18,12.27ZM264.02,168.69c0,4.38,3.43,7.8,7.8,7.8s7.71-3.52,7.71-7.8-3.52-7.8-7.71-7.8-7.8,3.52-7.8,7.8Z" fill="#010101"/><path d="M274.01,105.23c0,6.75-5.52,12.27-12.27,12.27s-12.27-5.52-12.27-12.27,5.52-12.18,12.27-12.18,12.27,5.42,12.27,12.18ZM253.94,105.23c0,4.38,3.43,7.8,7.8,7.8s7.8-3.52,7.8-7.8-3.52-7.8-7.8-7.8-7.8,3.52-7.8,7.8Z" fill="#010101"/><path d="M274.01,221.58c0,6.75-5.52,12.18-12.27,12.18s-12.27-5.52-12.27-12.18,5.52-12.18,12.27-12.18,12.27,5.42,12.27,12.18ZM253.94,221.58c0,4.38,3.43,7.8,7.8,7.8s7.8-3.52,7.8-7.8-3.52-7.8-7.8-7.8-7.8,3.33-7.8,7.8Z" fill="#010101"/><path d="M234.05,219.87c0,6.75-5.52,12.18-12.18,12.18s-12.27-5.52-12.27-12.18,5.52-12.18,12.27-12.18,12.18,5.52,12.18,12.18ZM213.98,219.87c0,4.38,3.43,7.8,7.8,7.8s7.71-3.52,7.71-7.8-3.52-7.8-7.71-7.8-7.8,3.43-7.8,7.8Z" fill="#010101"/><path d="M234.05,403.5c0,6.75-5.52,12.18-12.18,12.18s-12.27-5.52-12.27-12.18,5.52-12.27,12.27-12.27,12.18,5.52,12.18,12.27ZM213.98,403.5c0,4.28,3.52,7.8,7.8,7.8s7.71-3.52,7.71-7.8-3.52-7.8-7.71-7.8-7.8,3.43-7.8,7.8Z" fill="#010101"/><path d="M283.91,354.31c0,6.75-5.52,12.27-12.18,12.27s-12.27-5.52-12.27-12.27,5.52-12.27,12.27-12.27,12.18,5.52,12.18,12.27ZM264.02,354.31c0,4.28,3.52,7.8,7.8,7.8s7.71-3.52,7.71-7.8-3.52-7.8-7.71-7.8-7.8,3.43-7.8,7.8Z" fill="#010101"/><path d="M184.2,354.31c0,6.75-5.52,12.27-12.27,12.27s-12.27-5.52-12.27-12.27,5.52-12.27,12.27-12.27,12.27,5.52,12.27,12.27ZM164.13,354.31c0,4.28,3.52,7.8,7.8,7.8s7.8-3.52,7.8-7.8-3.52-7.8-7.8-7.8-7.8,3.43-7.8,7.8Z" fill="#010101"/><path d="M194.1,679.79c0,6.75-5.52,12.27-12.27,12.27s-12.18-5.52-12.18-12.27,5.52-12.27,12.18-12.27,12.27,5.52,12.27,12.27ZM174.11,679.79c0,4.38,3.43,7.8,7.71,7.8s7.8-3.43,7.8-7.8-3.52-7.8-7.8-7.8-7.71,3.52-7.71,7.8Z" fill="#010101"/><path d="M194.1,321.01c0,6.75-5.52,12.18-12.18,12.18s-12.27-5.52-12.27-12.18,5.52-12.27,12.27-12.27,12.18,5.52,12.18,12.27ZM174.11,321.01c0,4.28,3.52,7.8,7.8,7.8s7.71-3.52,7.71-7.8-3.52-7.8-7.71-7.8-7.8,3.43-7.8,7.8Z" fill="#010101"/><path d="M154.23,593.5c0,6.75-5.52,12.27-12.27,12.27s-12.18-5.52-12.18-12.27,5.52-12.27,12.18-12.27,12.27,5.52,12.27,12.27ZM134.26,593.5c0,4.38,3.43,7.8,7.71,7.8s7.8-3.43,7.8-7.8-3.52-7.8-7.8-7.8-7.71,3.43-7.71,7.8Z" fill="#010101"/><path d="M154.23,659.52c0,6.75-5.52,12.27-12.27,12.27s-12.18-5.52-12.18-12.27,5.52-12.27,12.18-12.27,12.27,5.52,12.27,12.27ZM134.26,659.52c0,4.38,3.43,7.8,7.71,7.8s7.8-3.43,7.8-7.8-3.52-7.8-7.8-7.8-7.71,3.52-7.71,7.8Z" fill="#010101"/><path d="M234.05,935.72c0,6.75-5.52,12.27-12.18,12.27s-12.27-5.52-12.27-12.27,5.52-12.27,12.27-12.27,12.18,5.52,12.18,12.27h0ZM213.98,935.72c0,4.38,3.52,7.8,7.8,7.8s7.71-3.43,7.71-7.8-3.43-7.8-7.71-7.8-7.8,3.43-7.8,7.8Z" fill="#010101"/><path d="M274.01,603.49c0,6.75-5.52,12.27-12.27,12.27s-12.27-5.52-12.27-12.27,5.52-12.27,12.27-12.27,12.27,5.52,12.27,12.27ZM253.94,603.49c0,4.38,3.52,7.8,7.8,7.8s7.8-3.43,7.8-7.8-3.52-7.8-7.8-7.8-7.8,3.52-7.8,7.8Z" fill="#010101"/><path d="M194.1,852.76c0,6.75-5.52,12.27-12.18,12.27s-12.27-5.52-12.27-12.27,5.52-12.18,12.27-12.18,12.18,5.52,12.18,12.18ZM174.11,852.76c0,4.38,3.52,7.9,7.8,7.9s7.71-3.52,7.71-7.9-3.43-7.8-7.71-7.8-7.8,3.52-7.8,7.8Z" fill="#010101"/><path d="M194.1,1007.94c0,6.75-5.52,12.27-12.18,12.27s-12.27-5.52-12.27-12.27,5.52-12.27,12.27-12.27,12.18,5.52,12.18,12.27ZM174.11,1007.94c0,4.38,3.52,7.9,7.8,7.9s7.71-3.52,7.71-7.9-3.43-7.8-7.71-7.8-7.8,3.52-7.8,7.8Z" fill="#010101"/><path d="M74.41,561.05c0,6.75-5.52,12.27-12.27,12.27s-12.27-5.52-12.27-12.27,5.52-12.27,12.27-12.27,12.27,5.52,12.27,12.27ZM54.33,561.05c0,4.28,3.52,7.8,7.8,7.8s7.8-3.52,7.8-7.8-3.52-7.8-7.8-7.8-7.8,3.52-7.8,7.8Z" fill="#010101"/><path d="M124.36,714.7c0,6.75-5.52,12.27-12.27,12.27s-12.27-5.52-12.27-12.27,5.52-12.27,12.27-12.27,12.27,5.52,12.27,12.27ZM104.28,714.7c0,4.38,3.52,7.8,7.8,7.8s7.8-3.43,7.8-7.8-3.52-7.8-7.8-7.8-7.8,3.43-7.8,7.8Z" fill="#010101"/><path d="M74.41,749.43c0,6.75-5.52,12.27-12.27,12.27s-12.18-5.52-12.18-12.27,5.52-12.27,12.18-12.27,12.27,5.52,12.27,12.27ZM54.43,749.43c0,4.28,3.43,7.8,7.71,7.8s7.8-3.52,7.8-7.8-3.52-7.8-7.8-7.8-7.71,3.52-7.71,7.8Z" fill="#010101"/><path d="M114.36,903.75c0,6.75-5.52,12.27-12.27,12.27s-12.18-5.52-12.18-12.27,5.52-12.27,12.18-12.27,12.27,5.42,12.27,12.27ZM94.29,903.75c0,4.28,3.43,7.8,7.71,7.8s7.8-3.52,7.8-7.8-3.52-7.8-7.8-7.8-7.71,3.43-7.71,7.8Z" fill="#010101"/><path d="M74.41,967.4c0,6.75-5.52,12.27-12.27,12.27s-12.18-5.52-12.18-12.27,5.52-12.27,12.18-12.27,12.27,5.52,12.27,12.27ZM54.43,967.4c0,4.38,3.43,7.8,7.71,7.8s7.8-3.43,7.8-7.8-3.52-7.8-7.8-7.8-7.71,3.43-7.71,7.8Z" fill="#010101"/><path d="M154.23,1109.83c0,6.75-5.52,12.27-12.27,12.27s-12.18-5.52-12.18-12.27,5.52-12.27,12.18-12.27,12.27,5.52,12.27,12.27ZM134.26,1109.83c0,4.38,3.43,7.8,7.71,7.8s7.8-3.43,7.8-7.8-3.52-7.8-7.8-7.8-7.71,3.52-7.71,7.8Z" fill="#010101"/><path d="M34.54,734.78c0,6.75-5.52,12.27-12.27,12.27s-12.27-5.52-12.27-12.27,5.52-12.27,12.27-12.27,12.27,5.52,12.27,12.27ZM14.46,734.78c0,4.38,3.52,7.8,7.8,7.8s7.8-3.43,7.8-7.8-3.52-7.8-7.8-7.8-7.8,3.52-7.8,7.8Z" fill="#010101"/><path d="M34.54,1065.68c0,6.75-5.52,12.27-12.27,12.27s-12.27-5.52-12.27-12.27,5.52-12.27,12.27-12.27,12.27,5.52,12.27,12.27ZM14.46,1065.68c0,4.38,3.52,7.8,7.8,7.8s7.8-3.43,7.8-7.8-3.52-7.8-7.8-7.8-7.8,3.52-7.8,7.8Z" fill="#010101"/><path d="M74.41,693.11c0,6.75-5.52,12.27-12.27,12.27s-12.18-5.52-12.18-12.27,5.52-12.27,12.18-12.27,12.27,5.52,12.27,12.27ZM54.43,693.11c0,4.38,3.43,7.8,7.71,7.8s7.8-3.43,7.8-7.8-3.52-7.8-7.8-7.8-7.71,3.52-7.71,7.8Z" fill="#010101"/><path d="M114.36,556.58c0,6.75-5.52,12.27-12.27,12.27s-12.18-5.52-12.18-12.27,5.52-12.27,12.18-12.27,12.27,5.52,12.27,12.27ZM94.29,556.58c0,4.28,3.43,7.8,7.71,7.8s7.8-3.52,7.8-7.8-3.52-7.8-7.8-7.8-7.71,3.52-7.71,7.8Z" fill="#010101"/><path d="M114.36,150.61c0,6.75-5.52,12.18-12.27,12.18s-12.18-5.52-12.18-12.18,5.52-12.27,12.18-12.27,12.27,5.52,12.27,12.27ZM94.29,150.61c0,4.28,3.43,7.8,7.71,7.8s7.8-3.52,7.8-7.8-3.43-7.8-7.8-7.8-7.71,3.43-7.71,7.8Z" fill="#010101"/><rect x="59.94" y="2.28" width="4.47" height="287.8" fill="#010101"/><rect x="99.81" y="2.28" width="4.47" height="138.33" fill="#010101"/><polygon points="144.14 2.28 144.14 235.39 104.28 235.39 104.28 395.6 22.27 395.6 22.27 391.13 99.81 391.13 99.81 230.91 139.77 
230.91 139.77 2.28 144.14 2.28" fill="#010101"/><polygon points="184.2 2.28 184.2 302.08 144.14 302.08 144.14 465.53 104.28 465.53 104.28 538.13 59.94 538.13 59.94 497.88 22.27 497.88 22.27 493.41 64.41 493.41 64.41 533.65 99.81 533.65 99.81 461.06 139.77 461.06 139.77 297.6 179.73 297.6 179.73 2.28 184.2 2.28" fill="#010101"/><polygon points="261.74 166.5 261.74 170.97 219.59 170.97 219.59 2.28 224.06 2.28 224.06 166.5 261.74 166.5" fill="#010101"/><rect x="219.59" y="228.53" width="4.47" height="164.88" fill="#010101"/><polygon points="184.2 330.04 184.2 507.96 144.14 507.96 144.14 583.41 139.77 583.41 139.77 503.49 179.73 503.49 179.73 330.04 184.2 330.04" fill="#010101"/><polygon points="102 712.52 102 716.99 20.08 716.99 20.08 641.26 59.94 641.26 59.94 570.85 64.41 570.85 64.41 645.73 24.45 645.73 24.45 712.52 102 712.52" fill="#010101"/><polygon points="104.28 566.67 104.28 664.85 64.41 664.85 64.41 683.12 59.94 683.12 59.94 660.38 99.81 660.38 99.81 566.67 104.28 566.67" fill="#010101"/><polygon points="224.06 745.63 224.06 925.73 219.59 925.73 219.59 750.1 184.2 750.1 184.2 800.81 139.77 800.81 139.77 669.61 144.14 669.61 144.14 796.34 179.73 796.34 179.73 745.63 224.06 745.63" fill="#010101"/><polygon points="184.2 862.84 184.2 914.41 144.14 914.41 144.14 949.14 184.1 949.14 184.1 997.85 179.63 997.85 179.63 953.51 139.77 953.51 139.77 909.94 179.73 909.94 179.73 862.84 184.2 862.84" fill="#010101"/><polygon points="64.41 850.57 64.41 938 24.45 938 24.45 1055.6 20.08 1055.6 20.08 933.53 59.94 933.53 59.94 855.04 20.08 855.04 20.08 745.44 24.45 745.44 24.45 850.57 64.41 850.57" fill="#010101"/><polygon points="104.28 825.17 104.28 894.52 99.81 894.52 99.81 829.64 59.94 829.64 59.94 759.42 64.41 759.42 64.41 825.17 104.28 825.17" fill="#010101"/><polygon points="144.14 1007.27 144.14 1097.18 139.77 1097.18 139.77 1011.74 104.28 1011.74 104.28 1043.9 59.94 1043.9 59.94 977.39 64.41 977.39 64.41 1039.42 99.81 1039.42 99.81 1007.27 144.14 1007.27" fill="#010101"/><rect x="259.55" y="2.28" width="4.47" height="93.05" fill="#010101"/><polygon points="303.89 326.91 303.89 414.25 264.02 414.25 264.02 496.26 224.06 496.26 224.06 588.45 184.1 588.45 184.1 669.61 179.63 669.61 179.63 583.98 219.59 583.98 219.59 491.79 259.55 491.79 259.55 409.78 299.42 409.78 299.42 331.38 259.55 331.38 259.55 231.38 264.02 231.38 264.02 326.91 303.89 326.91" fill="#010101"/><rect x="22.27" y="430.99" width="79.82" height="4.47" fill="#010101"/><rect x="181.91" y="352.12" width="79.92" height="4.47" fill="#010101"/><polygon points="303.89 711.95 303.89 840.87 264.02 840.87 264.02 965.6 224.06 965.6 224.06 1121.63 219.59 1121.63 219.59 961.13 259.55 961.13 259.55 836.4 299.42 836.4 299.42 716.42 259.55 716.42 259.55 613.85 264.02 613.85 264.02 711.95 303.89 711.95" fill="#010101"/><rect x="259.55" y="743.15" width="4.47" height="62.89" fill="#010101"/><path d="M970.83,953.32c0,6.75-5.52,12.27-12.27,12.27s-12.27-5.52-12.27-12.27,5.52-12.18,12.27-12.18,12.27,5.52,12.27,12.18ZM950.76,953.32c0,4.38,3.43,7.9,7.8,7.9s7.8-3.43,7.8-7.9-3.52-7.8-7.8-7.8-7.8,3.52-7.8,7.8Z" fill="#010101"/><path d="M980.91,1016.88c0,6.75-5.52,12.18-12.27,12.18s-12.27-5.42-12.27-12.18,5.52-12.27,12.27-12.27,12.27,5.52,12.27,12.27ZM960.85,1016.88c0,4.28,3.43,7.8,7.8,7.8s7.8-3.52,7.8-7.8-3.43-7.9-7.8-7.9-7.8,3.52-7.8,7.9Z" fill="#010101"/><path d="M980.91,900.61c0,6.75-5.52,12.18-12.27,12.18s-12.27-5.42-12.27-12.18,5.52-12.27,12.27-12.27,12.27,5.52,12.27,12.27ZM960.85,900.61c0,4.38,3.43,7.8,7.8,7.8s7.8-3.43,7.8-7.8-3.43-7.8-7.8-7.8-7.8,3.43-7.8,7.8Z" fill="#010101"/><path d="M1020.69,902.24c0,6.75-5.52,12.18-12.27,12.18s-12.27-5.52-12.27-12.18,5.52-12.27,12.27-12.27,12.27,5.52,12.27,12.27ZM1000.71,902.24c0,4.28,3.52,7.8,7.8,7.8s7.9-3.33,7.9-7.8-3.43-7.8-7.9-7.8-7.8,3.43-7.8,7.8Z" fill="#010101"/><path d="M1020.69,718.7c0,6.75-5.52,12.27-12.27,12.27s-12.27-5.52-12.27-12.27,5.52-12.18,12.27-12.18,12.27,5.42,12.27,12.18ZM1000.71,718.7c0,4.28,3.52,7.8,7.8,7.8s7.9-3.43,7.9-7.8-3.52-7.8-7.9-7.8-7.8,3.52-7.8,7.8Z" fill="#010101"/><path d="M970.83,767.79c0,6.75-5.52,12.27-12.27,12.27s-12.27-5.52-12.27-12.27,5.52-12.27,12.27-12.27,12.27,5.52,12.27,12.27ZM950.76,767.79c0,4.38,3.43,7.8,7.8,7.8s7.8-3.43,7.8-7.8-3.52-7.8-7.8-7.8-7.8,3.52-7.8,7.8Z" fill="#010101"/><path d="M1070.73,767.79c0,6.75-5.52,12.27-12.27,12.27s-12.27-5.52-12.27-12.27,5.52-12.27,12.27-12.27,12.27,5.52,12.27,12.27ZM1050.65,767.79c0,4.38,3.43,7.8,7.8,7.8s7.8-3.43,7.8-7.8-3.52-7.8-7.8-7.8-7.8,3.52-7.8,7.8Z" fill="#010101"/><path d="M1060.65,442.31c0,6.75-5.52,12.27-12.27,12.27s-12.18-5.52-12.18-12.27,5.42-12.27,12.18-12.27,12.27,5.52,12.27,12.27h0ZM1040.67,442.31c0,4.28,3.52,7.8,7.8,7.8s7.8-3.52,7.8-7.8-3.52-7.8-7.8-7.8-7.8,3.52-7.8,7.8Z" fill="#010101"/><path d="M1060.65,801.09c0,6.75-5.52,12.27-12.27,12.27s-12.27-5.52-12.27-12.27,5.52-12.27,12.27-12.27,12.27,5.52,12.27,12.27ZM1040.57,801.09c0,4.38,3.52,7.8,7.9,7.8s7.8-3.43,7.8-7.8-3.52-7.8-7.8-7.8-7.9,3.52-7.9,7.8h0Z" fill="#010101"/><path d="M1100.6,528.61c0,6.75-5.52,12.27-12.27,12.27s-12.18-5.52-12.18-12.27,5.52-12.27,12.18-12.27,12.27,5.52,12.27,12.27ZM1080.63,528.61c0,4.28,3.43,7.8,7.71,7.8s7.8-3.52,7.8-7.8-3.43-7.8-7.8-7.8-7.71,3.52-7.71,7.8Z" fill="#010101"/><path d="M1100.6,462.58c0,6.75-5.52,12.27-12.27,12.27s-12.18-5.52-12.18-12.27,5.52-12.27,12.18-12.27,12.27,5.52,12.27,12.27ZM1080.63,462.58c0,4.28,3.43,7.8,7.71,7.8s7.8-3.52,7.8-7.8-3.43-7.8-7.8-7.8-7.71,3.52-7.71,7.8Z" fill="#010101"/><path d="M1020.69,186.38c0,6.75-5.52,12.27-12.27,12.27s-12.27-5.52-12.27-12.27,5.52-12.27,12.27-12.27,12.27,5.52,12.27,12.27ZM1000.71,186.38c0,4.28,3.52,7.8,7.8,7.8s7.9-3.52,7.9-7.8-3.52-7.8-7.9-7.8-7.8,3.52-7.8,7.8Z" fill="#010101"/><path d="M980.91,518.62c0,6.75-5.52,12.27-12.27,12.27s-12.27-5.52-12.27-12.27,5.52-12.27,12.27-12.27,12.27,5.52,12.27,12.27h0ZM960.85,518.62c0,4.28,3.43,7.8,7.8,7.8s7.8-3.52,7.8-7.8-3.43-7.8-7.8-7.8-7.8,3.43-7.8,7.8Z" fill="#010101"/><path d="M1060.65,269.35c0,6.75-5.52,12.27-12.27,12.27s-12.27-5.52-12.27-12.27,5.52-12.27,12.27-12.27,12.27,5.52,12.27,12.27ZM1040.57,269.35c0,4.28,3.52,7.8,7.9,7.8s7.8-3.52,7.8-7.8-3.52-7.8-7.8-7.8-7.9,3.52-7.9,7.8h0Z" fill="#010101"/><path d="M1060.65,114.17c0,6.75-5.52,12.27-12.27,12.27s-12.27-5.52-12.27-12.27,5.52-12.27,12.27-12.27,12.27,5.52,12.27,12.27ZM1040.57,114.17c0,4.28,3.52,7.8,7.9,7.8s7.8-3.52,7.8-7.8-3.52-7.8-7.8-7.8-7.9,3.52-7.9,7.8h0Z" fill="#010101"/><polygon points="1010.69 951.13 1010.69 1119.92 1006.32 1119.92 1006.32 955.6 968.55 955.6 968.55 951.13 1010.69 951.13" fill="#010101"/><rect x="1006.32" y="728.69" width="4.47" height="164.88" fill="#010101"/><polygon points="1090.52 538.69 1090.52 618.61 1050.65 618.61 1050.65 792.05 1046.18 792.05 1046.18 614.24 1086.05 614.24 1086.05 538.69 1090.52 538.69" fill="#010101"/><polygon points="1090.52 321.29 1090.52 452.49 1086.05 452.49 1086.05 325.77 1050.65 325.77 1050.65 376.57 1006.32 376.57 1006.32 196.38 1010.69 196.38 1010.69 372.1 1046.18 372.1 1046.18 321.29 1090.52 321.29" fill="#010101"/><polygon points="1090.52 168.59 1090.52 212.17 1050.65 212.17 1050.65 259.26 1046.18 259.26 1046.18 207.69 1086.05 207.69 1086.05 173.06 1046.18 173.06 1046.18 124.16 1050.65 124.16 1050.65 168.59 1090.52 168.59" fill="#010101"/><rect x="966.36" y="1026.87" width="4.47" height="92.95" fill="#010101"/><polygon points="1050.65 452.49 1050.65 538.13 1010.69 538.13 1010.69 630.41 970.83 630.41 970.83 712.24 930.87 712.24 930.87 790.72 970.83 790.72 970.83 890.82 966.36 890.82 966.36 795.2 926.49 795.2 926.49 707.86 966.36 707.86 966.36 625.85 1006.32 625.85 1006.32 533.65 1046.18 533.65 1046.18 452.49 1050.65 452.49" fill="#010101"/><rect x="968.55" y="765.61" width="79.82" height="4.47" fill="#010101"/><polygon points="1010.69 2.28 1010.69 162.22 970.83 162.22 970.83 286.47 930.87 286.47 930.87 406.07 970.83 406.07 970.83 508.25 966.36 508.25 966.36 410.54 926.49 410.54 926.49 282.1 966.36 282.1 966.36 157.75 1006.32 157.75 1006.32 2.28 1010.69 2.28" fill="#010101"/><rect x="966.36" y="316.06" width="4.47" height="62.89" fill="#010101"/><rect x="892.15" y="931.73" width="4.47" height="188.1" fill="#010101"/><path d="M906.7,920.59c0,6.75-5.52,12.27-12.27,12.27s-12.27-5.52-12.27-12.27,5.52-12.27,12.27-12.27,12.27,5.52,12.27,12.27ZM886.53,920.59c0,4.38,3.52,7.9,7.9,7.9s7.8-3.52,7.8-7.9-3.52-7.8-7.8-7.8-7.9,3.52-7.9,7.8Z" fill="#010101"/><path d="M916.6,626.42c0,6.75-5.52,12.27-12.18,12.27s-12.27-5.52-12.27-12.27,5.52-12.27,12.27-12.27,12.18,5.52,12.18,12.27ZM896.62,626.42c0,4.38,3.43,7.8,7.8,7.8s7.71-3.43,7.71-7.8-3.52-7.8-7.71-7.8-7.8,3.43-7.8,7.8Z" fill="#010101"/><path d="M866.75,823.74c0,6.75-5.52,12.18-12.27,12.18s-12.27-5.42-12.27-12.18,5.52-12.27,12.27-12.27,12.27,5.52,12.27,12.27ZM846.67,823.74c0,4.28,3.52,7.8,7.8,7.8s7.9-3.43,7.9-7.8-3.52-7.8-7.9-7.8-7.8,3.43-7.8,7.8Z" fill="#010101"/><path d="M916.6,728.69c0,6.75-5.52,12.27-12.18,12.27s-12.27-5.52-12.27-12.27,5.52-12.27,12.27-12.27,12.18,5.52,12.18,12.27ZM896.62,728.69c0,4.28,3.43,7.8,7.8,7.8s7.71-3.52,7.71-7.8-3.52-7.9-7.71-7.9-7.8,3.52-7.8,7.9Z" fill="#010101"/><path d="M657.05,953.32c0,6.75-5.52,12.27-12.27,12.27s-12.18-5.52-12.18-12.27,5.42-12.18,12.18-12.18,12.27,5.52,12.27,12.18ZM637.08,953.32c0,4.38,3.52,7.9,7.71,7.9s7.9-3.52,7.9-7.9-3.43-7.8-7.9-7.8-7.71,3.52-7.71,7.8Z" fill="#010101"/><path d="M667.05,1016.79c0,6.75-5.52,12.18-12.27,12.18s-12.27-5.52-12.27-12.18,5.52-12.27,12.27-12.27,12.27,5.52,12.27,12.27ZM647.06,1016.79c0,4.28,3.52,7.8,7.8,7.8s7.9-3.52,7.9-7.8-3.43-7.8-7.9-7.8-7.8,3.52-7.8,7.8Z" fill="#010101"/><path d="M667.05,900.61c0,6.75-5.52,12.18-12.27,12.18s-12.27-5.42-12.27-12.18,5.52-12.27,12.27-12.27,12.27,5.52,12.27,12.27ZM647.06,900.61c0,4.28,3.52,7.8,7.8,7.8s7.9-3.33,7.9-7.8-3.52-7.8-7.9-7.8-7.8,3.52-7.8,7.8Z" fill="#010101"/><path d="M707,902.24c0,6.75-5.52,12.18-12.27,12.18s-12.18-5.52-12.18-12.18,5.42-12.27,12.18-12.27,12.27,5.52,12.27,12.27ZM687.03,902.24c0,4.28,3.43,7.8,7.71,7.8s7.8-3.33,7.8-7.8-3.52-7.8-7.8-7.8-7.71,3.43-7.71,7.8Z" fill="#010101"/><path d="
M707,718.7c0,6.75-5.52,12.27-12.27,12.27s-12.18-5.52-12.18-12.27,5.42-12.18,12.18-12.18,12.27,5.42,12.27,12.18ZM687.03,718.7c0,4.28,3.43,7.8,7.71,7.8s7.8-3.43,7.8-7.8-3.43-7.8-7.8-7.8-7.71,3.52-7.71,7.8Z" fill="#010101"/><path d="M657.05,767.79c0,6.75-5.52,12.27-12.27,12.27s-12.18-5.42-12.18-12.27,5.42-12.27,12.18-12.27,12.27,5.52,12.27,12.27ZM637.08,767.79c0,4.28,3.52,7.8,7.71,7.8s7.9-3.33,7.9-7.8-3.52-7.8-7.9-7.8-7.71,3.52-7.71,7.8Z" fill="#010101"/><path d="M756.96,767.79c0,6.75-5.52,12.27-12.27,12.27s-12.27-5.42-12.27-12.27,5.52-12.27,12.27-12.27,12.27,5.52,12.27,12.27ZM736.88,767.79c0,4.28,3.52,7.8,7.8,7.8s7.9-3.33,7.9-7.8-3.52-7.8-7.9-7.8-7.8,3.52-7.8,7.8Z" fill="#010101"/><path d="M746.96,442.31c0,6.75-5.42,12.27-12.18,12.27s-12.27-5.52-12.27-12.27,5.52-12.27,12.27-12.27,12.18,5.52,12.18,12.27h0ZM726.89,442.31c0,4.28,3.52,7.8,7.8,7.8s7.8-3.52,7.8-7.8-3.52-7.8-7.8-7.8-7.8,3.52-7.8,7.8Z" fill="#010101"/><path d="M746.96,801.09c0,6.75-5.52,12.27-12.27,12.27s-12.18-5.52-12.18-12.27,5.52-12.27,12.18-12.27,12.27,5.52,12.27,12.27ZM726.89,801.09c0,4.38,3.52,7.8,7.71,7.8s7.9-3.43,7.9-7.8-3.43-7.8-7.9-7.8-7.71,3.52-7.71,7.8Z" fill="#010101"/><path d="M786.83,528.61c0,6.75-5.42,12.27-12.18,12.27s-12.27-5.52-12.27-12.27,5.52-12.27,12.27-12.27,12.18,5.52,12.18,12.27ZM766.84,528.61c0,4.28,3.52,7.8,7.9,7.8s7.71-3.52,7.71-7.8-3.52-7.8-7.71-7.8-7.9,3.52-7.9,7.8Z" fill="#010101"/><path d="M786.83,462.58c0,6.75-5.42,12.27-12.18,12.27s-12.27-5.52-12.27-12.27,5.52-12.27,12.27-12.27,12.18,5.52,12.18,12.27ZM766.84,462.58c0,4.28,3.52,7.8,7.9,7.8s7.71-3.52,7.71-7.8-3.52-7.8-7.71-7.8-7.9,3.52-7.9,7.8Z" fill="#010101"/><path d="M707,186.38c0,6.75-5.52,12.27-12.27,12.27s-12.18-5.52-12.18-12.27,5.42-12.27,12.18-12.27,12.27,5.52,12.27,12.27ZM687.03,186.38c0,4.28,3.43,7.8,7.71,7.8s7.8-3.52,7.8-7.8-3.52-7.8-7.8-7.8-7.71,3.52-7.71,7.8Z" fill="#010101"/><path d="M667.05,518.62c0,6.75-5.52,12.27-12.27,12.27s-12.27-5.52-12.27-12.27,5.52-12.27,12.27-12.27,12.27,5.52,12.27,12.27h0ZM647.06,518.62c0,4.28,3.52,7.8,7.8,7.8s7.9-3.52,7.9-7.8-3.52-7.8-7.9-7.8-7.8,3.43-7.8,7.8Z" fill="#010101"/><path d="M746.96,269.35c0,6.75-5.52,12.27-12.27,12.27s-12.18-5.52-12.18-12.27,5.52-12.27,12.18-12.27,12.27,5.52,12.27,12.27ZM726.89,269.35c0,4.28,3.52,7.8,7.71,7.8s7.9-3.52,7.9-7.8-3.52-7.8-7.9-7.8-7.71,3.52-7.71,7.8Z" fill="#010101"/><path d="M746.96,114.17c0,6.75-5.52,12.27-12.27,12.27s-12.18-5.52-12.18-12.27,5.52-12.27,12.18-12.27,12.27,5.52,12.27,12.27ZM726.89,114.17c0,4.28,3.52,7.8,7.71,7.8s7.9-3.52,7.9-7.8-3.52-7.8-7.9-7.8-7.71,3.52-7.71,7.8Z" fill="#010101"/><path d="M866.75,561.05c0,6.75-5.52,12.27-12.27,12.27s-12.27-5.52-12.27-12.27,5.52-12.27,12.27-12.27,12.27,5.52,12.27,12.27ZM846.67,561.05c0,4.28,3.52,7.8,7.8,7.8s7.9-3.52,7.9-7.8-3.52-7.8-7.9-7.8-7.8,3.52-7.8,7.8Z" fill="#010101"/><path d="M816.8,407.4c0,6.75-5.52,12.27-12.27,12.27s-12.27-5.52-12.27-12.27,5.52-12.27,12.27-12.27,12.27,5.52,12.27,12.27ZM796.73,407.4c0,4.28,3.43,7.8,7.8,7.8s7.8-3.52,7.8-7.8-3.52-7.8-7.8-7.8-7.8,3.52-7.8,7.8Z" fill="#010101"/><path d="M866.65,372.77c0,6.75-5.42,12.27-12.18,12.27s-12.27-5.52-12.27-12.27,5.52-12.27,12.27-12.27,12.18,5.52,12.18,12.27ZM846.67,372.77c0,4.28,3.52,7.8,7.8,7.8s7.8-3.52,7.8-7.8-3.52-7.8-7.8-7.8-7.8,3.52-7.8,7.8Z" fill="#010101"/><path d="M826.79,218.35c0,6.75-5.52,12.27-12.18,12.27s-12.27-5.52-12.27-12.27,5.52-12.27,12.27-12.27,12.18,5.52,12.18,12.27ZM806.81,218.35c0,4.38,3.43,7.8,7.8,7.8s7.71-3.52,7.71-7.8-3.43-7.8-7.71-7.8-7.8,3.52-7.8,7.8Z" fill="#010101"/><path d="M866.65,154.8c0,6.75-5.42,12.27-12.18,12.27s-12.27-5.52-12.27-12.27,5.52-12.27,12.27-12.27,12.18,5.52,12.18,12.27ZM846.67,154.8c0,4.28,3.52,7.8,7.8,7.8s7.8-3.52,7.8-7.8-3.52-7.8-7.8-7.8-7.8,3.52-7.8,7.8Z" fill="#010101"/><path d="M786.83,12.27c0,6.75-5.42,12.27-12.18,12.27s-12.27-5.52-12.27-12.27,5.52-12.27,12.27-12.27,12.18,5.52,12.18,12.27ZM766.84,12.27c0,4.28,3.52,7.8,7.9,7.8s7.71-3.52,7.71-7.8-3.52-7.8-7.71-7.8-7.9,3.43-7.9,7.8Z" fill="#010101"/><path d="M906.7,387.32c0,6.75-5.52,12.27-12.27,12.27s-12.27-5.52-12.27-12.27,5.52-12.27,12.27-12.27,12.27,5.52,12.27,12.27ZM886.53,387.32c0,4.28,3.52,7.8,7.9,7.8s7.8-3.52,7.8-7.8-3.52-7.8-7.8-7.8-7.9,3.43-7.9,7.8Z" fill="#010101"/><path d="M906.7,56.52c0,6.75-5.52,12.27-12.27,12.27s-12.27-5.52-12.27-12.27,5.52-12.27,12.27-12.27,12.27,5.52,12.27,12.27ZM886.53,56.52c0,4.28,3.52,7.8,7.9,7.8s7.8-3.52,7.8-7.8-3.52-7.8-7.8-7.8-7.9,3.52-7.9,7.8Z" fill="#010101"/><path d="M866.65,429c0,6.75-5.42,12.27-12.18,12.27s-12.27-5.52-12.27-12.27,5.52-12.27,12.27-12.27,12.18,5.52,12.18,12.27ZM846.67,429c0,4.28,3.52,7.8,7.8,7.8s7.8-3.52,7.8-7.8-3.52-7.8-7.8-7.8-7.8,3.43-7.8,7.8Z" fill="#010101"/><path d="M826.79,565.52c0,6.75-5.52,12.27-12.18,12.27s-12.27-5.52-12.27-12.27,5.52-12.27,12.27-12.27,12.18,5.52,12.18,12.27ZM806.81,565.52c0,4.28,3.43,7.8,7.8,7.8s7.71-3.52,7.71-7.8-3.43-7.8-7.71-7.8-7.8,3.52-7.8,7.8Z" fill="#010101"/><path d="M826.79,971.59c0,6.75-5.52,12.27-12.18,12.27s-12.27-5.52-12.27-12.27,5.52-12.27,12.27-12.27,12.18,5.42,12.18,12.27ZM806.81,971.59c0,4.28,3.43,7.8,7.8,7.8s7.71-3.52,7.71-7.8-3.43-7.8-7.71-7.8-7.8,3.43-7.8,7.8Z" fill="#010101"/><rect x="852.28" y="832.11" width="4.47" height="287.8" fill="#010101"/><rect x="812.33" y="981.57" width="4.47" height="138.33" fill="#010101"/><polygon points="894.34 726.5 894.34 730.97 816.8 730.97 816.8 891.19 776.84 891.19 776.84 1119.92 772.46 1119.92 772.46 886.72 812.33 886.72 812.33 726.5 894.34 726.5" fill="#010101"/><polygon points="894.34 624.23 894.34 628.7 852.28 628.7 852.28 588.45 816.8 588.45 816.8 661.14 776.84 661.14 776.84 824.5 736.88 824.5 736.88 1119.92 732.41 1119.92 732.41 820.12 772.46 820.12 772.46 656.58 812.33 656.58 812.33 583.98 856.66 583.98 856.66 624.23 894.34 624.23" fill="#010101"/><polygon points="697.01 951.13 697.01 1119.92 692.54 1119.92 692.54 955.6 654.86 955.6 654.86 951.13 697.01 951.13" fill="#010101"/><rect x="692.54" y="728.69" width="4.47" height="164.88" fill="#010101"/><polygon points="776.84 538.69 776.84 618.61 736.88 618.61 736.88 792.05 732.41 792.05 732.41 614.24 772.46 614.24 772.46 538.69 776.84 538.69" fill="#010101"/><polygon points="896.62 405.11 896.62 480.85 856.66 480.85 856.66 551.26 852.28 551.26 852.28 476.38 892.15 476.38 892.15 409.59 814.61 409.59 814.61 405.11 896.62 405.11" fill="#010101"/><polygon points="856.66 438.99 856.66 461.72 816.8 461.72 816.8 555.44 812.33 555.44 812.33 457.25 852.28 457.25 852.28 438.99 856.66 438.99" fill="#010101"/><polygon points="776.84 321.29 776.84 452.49 772.46 452.49 772.46 325.77 736.88 325.77 736.88 376.57 692.54 376.57 692.54 196.38 697.01 196.38 697.01 372.1 732.41 372.1 732.41 321.29 776.84 321.29" fill="#010101"/><polygon points="776.84 168.59 776.84 212.17 736.88 212.17 736.88 259.26 732.41 259.26 732.41 207.69 772.46 207.69 772.46 173.06 732.5 173.06 732.5 124.16 736.97 124.16 736.97 168.59 776.84 168.59" fill="#010101"/><polygon points="896.62 66.51 896.62 188.57 856.66 188.57 856.66 267.16 896.62 267.16 896.62 376.67 892.15 376.67 892.15 271.54 852.28 271.54 852.28 184.2 892.15 184.2 892.15 66.51 896.62 66.51" fill="#010101"/><polygon points="856.66 292.47 856.66 362.68 852.28 362.68 852.28 296.94 812.33 296.94 812.33 227.67 816.8 227.67 816.8 292.47 856.66 292.47" fill="#010101"/><polygon points="856.66 78.2 856.66 144.71 852.28 144.71 852.28 82.67 816.8 82.67 816.8 114.84 772.46 114.84 772.46 24.93 776.84 24.93 776.84 110.37 812.33 110.37 812.33 78.2 856.66 78.2" fill="#010101"/><rect x="652.68" y="1026.87" width="4.47" height="92.95" fill="#010101"/><polygon points="736.97 452.49 736.97 538.13 697.01 538.13 697.01 630.41 657.05 630.41 657.05 712.24 617.19 712.24 617.19 790.72 657.05 790.72 657.05 890.82 652.68 890.82 652.68 795.2 612.72 795.2 612.72 707.86 652.68 707.86 652.68 625.85 692.54 625.85 692.54 533.65 732.5 533.65 732.5 452.49 736.97 452.49" fill="#010101"/><path d="M916.6,688.92c0,6.75-5.52,12.18-12.18,12.18s-12.27-5.42-12.27-12.18,5.52-12.27,12.27-12.27,12.18,5.52,12.18,12.27ZM896.62,688.92c0,4.38,3.43,7.8,7.8,7.8s7.71-3.52,7.71-7.8-3.52-7.8-7.71-7.8-7.8,3.52-7.8,7.8Z" fill="#010101"/><path d="M816.8,688.92c0,6.75-5.52,12.18-12.27,12.18s-12.27-5.42-12.27-12.18,5.52-12.27,12.27-12.27,12.27,5.52,12.27,12.27ZM796.73,688.92c0,4.38,3.43,7.8,7.8,7.8s7.8-3.52,7.8-7.8-3.52-7.8-7.8-7.8-7.8,3.52-7.8,7.8Z" fill="#010101"/><rect x="814.61" y="686.73" width="79.82" height="4.47" fill="#010101"/><path d="M361.64,987.95c0,6.75-5.52,12.18-12.18,12.18s-12.27-5.42-12.27-12.18,5.52-12.27,12.27-12.27,12.18,5.52,12.18,12.27ZM341.66,987.95c0,4.38,3.43,7.8,7.8,7.8s7.71-3.43,7.71-7.8-3.52-7.8-7.71-7.8-7.8,3.52-7.8,7.8Z" fill="#010101"/><path d="M261.74,987.95c0,6.75-5.52,12.18-12.27,12.18s-12.27-5.42-12.27-12.18,5.52-12.27,12.27-12.27,12.27,5.52,12.27,12.27ZM241.77,987.95c0,4.38,3.43,7.8,7.8,7.8s7.8-3.43,7.8-7.8-3.52-7.8-7.8-7.8-7.8,3.52-7.8,7.8Z" fill="#010101"/><rect x="259.55" y="985.67" width="79.82" height="4.47" fill="#010101"/><path d="M299.51,993.66c6.75,0,12.18,5.42,12.18,12.18s-5.52,12.18-12.18,12.18-12.27-5.52-12.27-12.18,5.52-12.18,12.27-12.18ZM299.51,1013.65c4.38,0,7.8-3.43,7.8-7.8s-3.52-7.8-7.8-7.8-7.8,3.52-7.8,7.8,3.43,7.8,7.8,7.8Z" fill="#010101"/><path d="M299.51,1093.46c6.75,0,12.18,5.52,12.18,12.18s-5.52,12.27-12.18,12.27-12.27-5.52-12.27-12.27,5.52-12.18,12.27-12.18ZM299.51,1113.63c4.38,0,7.8-3.43,7.8-7.9s-3.52-7.8-7.8-7.8-7.8,3.52-7.8,7.8,3.43,7.9,7.8,7.9Z" fill="#010101"/><rect x="297.23" y="1015.93" width="4.47" height="79.73" fill="#010101"/><path d="M299.51,433.47c6.75,0,12.18,5.52,12.18,12.18s-5.52,12.27-12.18,12.27-12.27-5.52-12.27-12.27,5.52-12.18,12.27-12.18ZM299.51,453.54c4.38,0,7.8-3.43,7.8-7.8s-3.52-7.71-7.8-7.71-7.8,3.52-7.8,7.71,3.43,7.8,7.8,7.8Z" fill="#010101"/><path d="M299.51,533.28c6.75,0,12.18,5.52,12.18,12.27s-5.52,12.27-12.18,12.27-12.27-5.52-12.27-12.27,5.52-12.27,12.27-12.27ZM299.51,553.34c4.38,0,7.8-3.43,7.8-7.8s-3.52-7.8-7.8-7.8-7.8,3.52-7.8,7.8,3.43,7.8,7.8,7.8Z" fill="#010101"/><rect x="297.23" y="455.73" width="4.47" height="79.82" fill="#
010101"/><path d="M926.49,466.48c6.75,0,12.27,5.52,12.27,12.18s-5.52,12.27-12.27,12.27-12.27-5.52-12.27-12.27,5.42-12.18,12.27-12.18ZM926.49,486.56c4.38,0,7.8-3.43,7.8-7.8s-3.52-7.71-7.8-7.71-7.8,3.52-7.8,7.71,3.43,7.8,7.8,7.8Z" fill="#010101"/><path d="M926.49,566.29c6.75,0,12.27,5.52,12.27,12.27s-5.52,12.27-12.27,12.27-12.27-5.52-12.27-12.27,5.42-12.27,12.27-12.27ZM926.49,586.36c4.38,0,7.8-3.43,7.8-7.8s-3.52-7.8-7.8-7.8-7.8,3.52-7.8,7.8,3.43,7.8,7.8,7.8Z" fill="#010101"/><rect x="924.3" y="488.74" width="4.47" height="79.82" fill="#010101"/><path d="M1050.65,957.61c6.75,0,12.18,5.42,12.18,12.18s-5.42,12.27-12.18,12.27-12.27-5.52-12.27-12.27,5.52-12.18,12.27-12.18ZM1050.65,977.58c4.38,0,7.8-3.43,7.8-7.8s-3.52-7.71-7.8-7.71-7.9,3.43-7.9,7.71,3.52,7.8,7.9,7.8Z" fill="#010101"/><path d="M1050.65,1057.4c6.75,0,12.18,5.52,12.18,12.27s-5.42,12.27-12.18,12.27-12.27-5.52-12.27-12.27,5.52-12.27,12.27-12.27ZM1050.65,1077.48c4.38,0,7.8-3.43,7.8-7.8s-3.52-7.9-7.8-7.9-7.9,3.52-7.9,7.9,3.52,7.8,7.9,7.8Z" fill="#010101"/><rect x="1048.47" y="979.87" width="4.47" height="79.82" fill="#010101"/><path d="M624.99,22.65c6.75,0,12.18,5.52,12.18,12.18s-5.42,12.27-12.18,12.27-12.27-5.52-12.27-12.27,5.52-12.18,12.27-12.18ZM624.99,42.62c4.38,0,7.8-3.43,7.8-7.8s-3.52-7.71-7.8-7.71-7.8,3.52-7.8,7.71,3.52,7.8,7.8,7.8Z" fill="#010101"/><path d="M624.99,122.54c6.75,0,12.18,5.52,12.18,12.27s-5.42,12.27-12.18,12.27-12.27-5.52-12.27-12.27,5.52-12.27,12.27-12.27ZM624.99,142.52c4.38,0,7.8-3.43,7.8-7.8s-3.52-7.8-7.8-7.8-7.8,3.52-7.8,7.8,3.52,7.8,7.8,7.8Z" fill="#010101"/><rect x="622.71" y="44.9" width="4.47" height="79.82" fill="#010101"/><path d="M946,22.65c6.75,0,12.18,5.52,12.18,12.18s-5.52,12.27-12.18,12.27-12.27-5.52-12.27-12.27,5.52-12.18,12.27-12.18ZM946,42.62c4.38,0,7.8-3.43,7.8-7.8s-3.43-7.71-7.8-7.71-7.8,3.52-7.8,7.71,3.52,7.8,7.8,7.8Z" fill="#010101"/><path d="M946,122.54c6.75,0,12.18,5.52,12.18,12.27s-5.52,12.27-12.18,12.27-12.27-5.52-12.27-12.27,5.52-12.27,12.27-12.27ZM946,142.52c4.38,0,7.8-3.43,7.8-7.8s-3.43-7.8-7.8-7.8-7.8,3.52-7.8,7.8,3.52,7.8,7.8,7.8Z" fill="#010101"/><rect x="943.81" y="44.9" width="4.47" height="79.82" fill="#010101"/><path d="M1083,22.65c6.75,0,12.18,5.52,12.18,12.18s-5.42,12.27-12.18,12.27-12.27-5.52-12.27-12.27,5.52-12.18,12.27-12.18ZM1083,42.62c4.38,0,7.8-3.43,7.8-7.8s-3.52-7.71-7.8-7.71-7.9,3.52-7.9,7.71,3.52,7.8,7.9,7.8Z" fill="#010101"/><path d="M1083,122.45c6.75,0,12.18,5.52,12.18,12.27s-5.42,12.27-12.18,12.27-12.27-5.52-12.27-12.27,5.52-12.27,12.27-12.27ZM1083,142.52c4.38,0,7.8-3.43,7.8-7.8s-3.52-7.8-7.8-7.8-7.9,3.52-7.9,7.8,3.52,7.8,7.9,7.8Z" fill="#010101"/><rect x="1080.72" y="44.81" width="4.47" height="79.82" fill="#010101"/><path d="M1083,818.22c6.75,0,12.18,5.42,12.18,12.18s-5.42,12.18-12.18,12.18-12.27-5.52-12.27-12.18,5.52-12.18,12.27-12.18ZM1083,838.3c4.38,0,7.8-3.43,7.8-7.8s-3.52-7.8-7.8-7.8-7.9,3.52-7.9,7.8,3.52,7.8,7.9,7.8Z" fill="#010101"/><path d="M1083,918.12c6.75,0,12.18,5.52,12.18,12.27s-5.42,12.27-12.18,12.27-12.27-5.52-12.27-12.27,5.52-12.27,12.27-12.27h0ZM1083,938.1c4.38,0,7.8-3.43,7.8-7.9s-3.52-7.8-7.8-7.8-7.9,3.52-7.9,7.8,3.52,7.9,7.9,7.9Z" fill="#010101"/><rect x="1080.72" y="840.49" width="4.47" height="79.73" fill="#010101"/><path d="M612.81,531.27c6.75,0,12.27,5.52,12.27,12.18s-5.42,12.27-12.27,12.27-12.27-5.52-12.27-12.27,5.52-12.18,12.27-12.18ZM612.81,551.26c4.38,0,7.8-3.43,7.8-7.8s-3.52-7.71-7.8-7.71-7.8,3.52-7.8,7.71,3.52,7.8,7.8,7.8Z" fill="#010101"/><path d="M612.81,631.17c6.75,0,12.27,5.52,12.27,12.27s-5.42,12.18-12.27,12.18-12.27-5.52-12.27-12.18,5.52-12.27,12.27-12.27ZM612.81,651.15c4.38,0,7.8-3.43,7.8-7.8s-3.52-7.9-7.8-7.9-7.8,3.52-7.8,7.9,3.52,7.8,7.8,7.8Z" fill="#010101"/><rect x="610.62" y="553.54" width="4.47" height="79.82" fill="#010101"/><path d="M904.42,761.52c6.75,0,12.18,5.42,12.18,12.18s-5.52,12.27-12.18,12.27-12.27-5.52-12.27-12.27,5.42-12.18,12.27-12.18ZM904.42,781.49c4.38,0,7.8-3.43,7.8-7.8s-3.52-7.8-7.8-7.8-7.8,3.52-7.8,7.8,3.43,7.8,7.8,7.8Z" fill="#010101"/><path d="M904.42,861.32c6.75,0,12.18,5.52,12.18,12.27s-5.52,12.18-12.18,12.18-12.27-5.52-12.27-12.18,5.42-12.27,12.27-12.27ZM904.42,881.49c4.38,0,7.8-3.43,7.8-7.8s-3.52-7.9-7.8-7.9-7.8,3.52-7.8,7.9,3.43,7.8,7.8,7.8Z" fill="#010101"/><rect x="902.24" y="783.78" width="4.47" height="79.82" fill="#010101"/><rect x="654.86" y="765.61" width="79.92" height="4.47" fill="#010101"/><polygon points="697.01 2.28 697.01 162.22 657.05 162.22 657.05 286.47 617.19 286.47 617.19 406.07 657.05 406.07 657.05 508.25 652.68 508.25 652.68 410.54 612.72 410.54 612.72 282.1 652.68 282.1 652.68 157.75 692.54 157.75 692.54 2.28 697.01 2.28" fill="#010101"/><rect x="652.68" y="316.06" width="4.47" height="62.89" fill="#010101"/><rect x="578.85" y="2.28" width="4.47" height="188.1" fill="#010101"/><path d="M593.31,201.51c0,6.75-5.52,12.27-12.27,12.27s-12.27-5.52-12.27-12.27,5.52-12.18,12.27-12.18,12.27,5.42,12.27,12.18ZM573.23,201.51c0,4.38,3.52,7.8,7.8,7.8s7.8-3.52,7.8-7.8-3.43-7.8-7.8-7.8-7.8,3.43-7.8,7.8Z" fill="#010101"/><path d="M603.3,495.69c0,6.75-5.42,12.27-12.18,12.27s-12.27-5.52-12.27-12.27,5.52-12.27,12.27-12.27,12.18,5.52,12.18,12.27ZM583.32,495.69c0,4.28,3.52,7.8,7.8,7.8s7.8-3.52,7.8-7.8-3.52-7.8-7.8-7.8-7.8,3.43-7.8,7.8Z" fill="#010101"/><path d="M553.45,298.46c0,6.75-5.52,12.18-12.27,12.18s-12.27-5.52-12.27-12.18,5.52-12.27,12.27-12.27,12.27,5.52,12.27,12.27ZM533.37,298.46c0,4.38,3.43,7.8,7.8,7.8s7.8-3.52,7.8-7.8-3.52-7.8-7.8-7.8-7.8,3.52-7.8,7.8Z" fill="#010101"/><path d="M603.3,393.41c0,6.75-5.42,12.27-12.18,12.27s-12.27-5.52-12.27-12.27,5.52-12.18,12.27-12.18,12.18,5.42,12.18,12.18ZM583.32,393.41c0,4.38,3.52,7.8,7.8,7.8s7.8-3.52,7.8-7.8-3.52-7.8-7.8-7.8-7.8,3.33-7.8,7.8Z" fill="#010101"/><path d="M603.3,433.28c0,6.75-5.42,12.27-12.18,12.27s-12.27-5.52-12.27-12.27,5.52-12.18,12.27-12.18,12.18,5.42,12.18,12.18ZM583.32,433.28c0,4.28,3.52,7.8,7.8,7.8s7.8-3.52,7.8-7.8-3.52-7.8-7.8-7.8-7.8,3.43-7.8,7.8Z" fill="#010101"/><path d="M503.49,433.28c0,6.75-5.52,12.27-12.27,12.27s-12.27-5.52-12.27-12.27,5.52-12.27,12.27-12.27,12.27,5.52,12.27,12.27ZM483.42,433.28c0,4.28,3.52,7.8,7.8,7.8s7.8-3.52,7.8-7.8-3.52-7.8-7.8-7.8-7.8,3.52-7.8,7.8Z" fill="#010101"/><path d="M343.75,168.69c0,6.75-5.52,12.18-12.27,12.18s-12.18-5.52-12.18-12.18,5.52-12.27,12.18-12.27,12.27,5.52,12.27,12.27ZM323.78,168.69c0,4.28,3.43,7.8,7.71,7.8s7.8-3.43,7.8-7.8-3.52-7.8-7.8-7.8-7.71,3.52-7.71,7.8Z" fill="#010101"/><path d="M353.84,105.23c0,6.75-5.52,12.27-12.27,12.27s-12.27-5.52-12.27-12.27,5.52-12.18,12.27-12.18,12.27,5.42,12.27,12.18ZM333.76,105.23c0,4.28,3.52,7.8,7.8,7.8s7.8-3.43,7.8-7.8-3.52-7.8-7.8-7.8-7.8,3.52-7.8,7.8Z" fill="#010101"/><path d="M353.84,221.58c0,6.75-5.52,12.27-12.27,12.27s-12.27-5.52-12.27-12.27,5.52-12.18,12.27-12.18,12.27,5.42,12.27,12.18ZM333.76,221.58c0,4.28,3.52,7.8,7.8,7.8s7.8-3.52,7.8-7.8-3.43-7.8-7.8-7.8-7.8,3.43-7.8,7.8Z" fill="#010101"/><path d="M393.7,219.87c0,6.75-5.52,12.27-12.27,12.27s-12.18-5.52-12.18-12.27,5.52-12.18,12.18-12.18,12.27,5.52,12.27,12.18ZM373.72,219.87c0,4.28,3.43,7.8,7.71,7.8s7.8-3.52,7.8-7.8-3.43-7.8-7.8-7.8-7.71,3.52-7.71,7.8Z" fill="#010101"/><path d="M393.7,403.5c0,6.75-5.52,12.18-12.27,12.18s-12.18-5.52-12.18-12.18,5.52-12.27,12.18-12.27,12.27,5.52,12.27,12.27ZM373.72,403.5c0,4.28,3.43,7.8,7.71,7.8s7.8-3.52,7.8-7.8-3.43-7.8-7.8-7.8-7.71,3.43-7.71,7.8Z" fill="#010101"/><path d="M343.75,354.31c0,6.75-5.52,12.27-12.27,12.27s-12.18-5.52-12.18-12.27,5.52-12.27,12.18-12.27,12.27,5.52,12.27,12.27ZM323.78,354.31c0,4.28,3.43,7.8,7.71,7.8s7.8-3.52,7.8-7.8-3.52-7.8-7.8-7.8-7.71,3.43-7.71,7.8Z" fill="#010101"/><path d="M443.65,354.31c0,6.75-5.52,12.27-12.27,12.27s-12.27-5.52-12.27-12.27,5.52-12.18,12.27-12.18,12.27,5.42,12.27,12.18ZM423.58,354.31c0,4.28,3.52,7.8,7.8,7.8s7.8-3.52,7.8-7.8-3.43-7.8-7.8-7.8-7.8,3.43-7.8,7.8h0Z" fill="#010101"/><path d="M433.66,679.79c0,6.75-5.52,12.27-12.18,12.27s-12.27-5.52-12.27-12.27,5.52-12.27,12.27-12.27,12.18,5.52,12.18,12.27ZM413.68,679.79c0,4.38,3.52,7.8,7.8,7.8s7.71-3.43,7.71-7.8-3.43-7.8-7.71-7.8-7.8,3.52-7.8,7.8Z" fill="#010101"/><path d="M433.66,321.01c0,6.75-5.52,12.18-12.27,12.18s-12.18-5.52-12.18-12.18,5.52-12.27,12.18-12.27,12.27,5.52,12.27,12.27ZM413.68,321.01c0,4.28,3.43,7.8,7.71,7.8s7.8-3.43,7.8-7.8-3.52-7.8-7.8-7.8-7.71,3.52-7.71,7.8Z" fill="#010101"/><path d="M473.53,593.5c0,6.75-5.52,12.27-12.18,12.27s-12.27-5.52-12.27-12.27,5.52-12.27,12.27-12.27,12.18,5.52,12.18,12.27ZM453.54,593.5c0,4.38,3.52,7.8,7.8,7.8s7.71-3.43,7.71-7.8-3.43-7.8-7.71-7.8-7.8,3.43-7.8,7.8Z" fill="#010101"/><path d="M473.53,659.52c0,6.75-5.52,12.27-12.18,12.27s-12.27-5.52-12.27-12.27,5.52-12.27,12.27-12.27,12.18,5.52,12.18,12.27ZM453.54,659.52c0,4.38,3.52,7.8,7.8,7.8s7.71-3.43,7.71-7.8-3.43-7.8-7.71-7.8-7.8,3.52-7.8,7.8Z" fill="#010101"/><path d="M393.7,935.72c0,6.75-5.52,12.27-12.27,12.27s-12.18-5.52-12.18-12.27,5.52-12.27,12.18-12.27,12.27,5.52,12.27,12.27h0ZM373.72,935.72c0,4.38,3.43,7.8,7.71,7.8s7.8-3.43,7.8-7.8-3.52-7.8-7.8-7.8-7.71,3.43-7.71,7.8Z" fill="#010101"/><path d="M353.84,603.49c0,6.75-5.52,12.27-12.27,12.27s-12.27-5.52-12.27-12.27,5.52-12.27,12.27-12.27,12.27,5.52,12.27,12.27ZM333.76,603.49c0,4.38,3.52,7.8,7.8,7.8s7.8-3.43,7.8-7.8-3.52-7.8-7.8-7.8-7.8,3.52-7.8,7.8Z" fill="#010101"/><path d="M433.66,852.76c0,6.75-5.52,12.27-12.27,12.27s-12.18-5.52-12.18-12.27,5.52-12.18,12.18-12.18,12.27,5.52,12.27,12.18ZM413.68,852.76c0,4.38,3.43,7.9,7.71,7.9s7.8-3.52,7.8-7.9-3.52-7.8-7.8-7.8-7.71,3.52-7.71,7.8Z" fill="#010101"/><path d="M433.66,1007.94c0,6.75-5.52,12.27-12.27,12.27s-12.18-5.52-12.18-12.27,5.52-12.27,12.18-12.27,12.27,5.52,12.27,12.27ZM413.68,1007.94c0,4.38,3.43,7.9,7.71,7.9s7.8-3.52,7.8-7.9-3.52-7.8-7.8-7.8-7.71,3.52-7.71,7.8Z" fill="#010101"/><path d="M553.45,561.05c0,6.75-5.52,12.27-12.27,12.27s-12.27-5.52-12.27-12.27,5.52-12.27,12.27-12.27,12.27,5.52,12.27,12.27ZM533.37,561.05c0,4.28,3.52,7.8,7.8,7.8s7.8-3.52,7.8-7.8-3.52-7.8-7.8-7.8-7.8,3.52-7.8,7.8Z" fill="#010101"/><path d="M503.49,714.7c0,6.75-5.52,12.27-12.27,12.27s-12.27-5.52-12.27-12.27,5.52-12.27,
12.27-12.27,12.27,5.52,12.27,12.27ZM483.42,714.7c0,4.38,3.52,7.8,7.8,7.8s7.8-3.43,7.8-7.8-3.52-7.8-7.8-7.8-7.8,3.43-7.8,7.8Z" fill="#010101"/><path d="M553.35,749.43c0,6.75-5.52,12.27-12.18,12.27s-12.27-5.52-12.27-12.27,5.52-12.27,12.27-12.27,12.18,5.52,12.18,12.27ZM533.37,749.43c0,4.28,3.52,7.8,7.8,7.8s7.71-3.52,7.71-7.8-3.43-7.8-7.71-7.8-7.8,3.52-7.8,7.8Z" fill="#010101"/><path d="M513.49,903.75c0,6.75-5.52,12.27-12.18,12.27s-12.27-5.52-12.27-12.27,5.52-12.27,12.27-12.27,12.18,5.42,12.18,12.27ZM493.41,903.75c0,4.28,3.52,7.8,7.8,7.8s7.71-3.52,7.71-7.8-3.43-7.8-7.71-7.8-7.8,3.43-7.8,7.8Z" fill="#010101"/><path d="M553.35,967.4c0,6.75-5.52,12.27-12.18,12.27s-12.27-5.52-12.27-12.27,5.52-12.27,12.27-12.27,12.18,5.52,12.18,12.27ZM533.37,967.4c0,4.38,3.52,7.8,7.8,7.8s7.71-3.43,7.71-7.8-3.43-7.8-7.71-7.8-7.8,3.43-7.8,7.8Z" fill="#010101"/><path d="M473.53,1109.83c0,6.75-5.52,12.27-12.18,12.27s-12.27-5.52-12.27-12.27,5.52-12.27,12.27-12.27,12.18,5.52,12.18,12.27ZM453.54,1109.83c0,4.38,3.43,7.8,7.8,7.8s7.71-3.43,7.71-7.8-3.43-7.8-7.71-7.8-7.8,3.52-7.8,7.8Z" fill="#010101"/><path d="M593.31,734.78c0,6.75-5.52,12.27-12.27,12.27s-12.27-5.52-12.27-12.27,5.52-12.27,12.27-12.27,12.27,5.52,12.27,12.27ZM573.23,734.78c0,4.38,3.52,7.8,7.8,7.8s7.8-3.43,7.8-7.8-3.43-7.8-7.8-7.8-7.8,3.52-7.8,7.8Z" fill="#010101"/><path d="M593.31,1065.68c0,6.75-5.52,12.27-12.27,12.27s-12.27-5.52-12.27-12.27,5.52-12.27,12.27-12.27,12.27,5.52,12.27,12.27ZM573.23,1065.68c0,4.38,3.52,7.8,7.8,7.8s7.8-3.43,7.8-7.8-3.43-7.8-7.8-7.8-7.8,3.52-7.8,7.8Z" fill="#010101"/><path d="M553.35,693.11c0,6.75-5.52,12.27-12.18,12.27s-12.27-5.52-12.27-12.27,5.52-12.27,12.27-12.27,12.18,5.52,12.18,12.27ZM533.37,693.11c0,4.38,3.52,7.8,7.8,7.8s7.71-3.43,7.71-7.8-3.43-7.8-7.71-7.8-7.8,3.52-7.8,7.8Z" fill="#010101"/><path d="M513.49,556.58c0,6.75-5.52,12.27-12.18,12.27s-12.27-5.52-12.27-12.27,5.52-12.27,12.27-12.27,12.18,5.52,12.18,12.27ZM493.41,556.58c0,4.28,3.52,7.8,7.8,7.8s7.71-3.52,7.71-7.8-3.43-7.8-7.71-7.8-7.8,3.52-7.8,7.8Z" fill="#010101"/><path d="M513.49,150.61c0,6.75-5.52,12.18-12.18,12.18s-12.27-5.52-12.27-12.18,5.52-12.27,12.27-12.27,12.18,5.52,12.18,12.27ZM493.41,150.61c0,4.38,3.43,7.8,7.8,7.8s7.71-3.52,7.71-7.8-3.52-7.8-7.71-7.8-7.8,3.43-7.8,7.8Z" fill="#010101"/><rect x="538.98" y="2.28" width="4.47" height="287.8" fill="#010101"/><rect x="499.02" y="2.28" width="4.47" height="138.33" fill="#010101"/><polygon points="581.13 391.13 581.13 395.6 499.02 395.6 499.02 235.39 459.16 235.39 459.16 2.28 463.54 2.28 463.54 230.91 503.49 230.91 503.49 391.13 581.13 391.13" fill="#010101"/><polygon points="581.13 493.41 581.13 497.88 543.36 497.88 543.36 538.13 499.02 538.13 499.02 465.53 459.16 465.53 459.16 302.08 419.11 302.08 419.11 2.28 423.58 2.28 423.58 297.6 463.54 297.6 463.54 461.06 503.49 461.06 503.49 533.65 538.98 533.65 538.98 493.41 581.13 493.41" fill="#010101"/><polygon points="383.71 2.28 383.71 170.97 341.56 170.97 341.56 166.5 379.24 166.5 379.24 2.28 383.71 2.28" fill="#010101"/><rect x="379.24" y="228.53" width="4.47" height="164.88" fill="#010101"/><polygon points="463.54 503.49 463.54 583.41 459.16 583.41 459.16 507.96 419.11 507.96 419.11 330.04 423.58 330.04 423.58 503.49 463.54 503.49" fill="#010101"/><polygon points="583.32 641.26 583.32 716.99 501.31 716.99 501.31 712.52 578.85 712.52 578.85 645.73 538.98 645.73 538.98 570.85 543.36 570.85 543.36 641.26 583.32 641.26" fill="#010101"/><polygon points="543.36 660.38 543.36 683.12 538.98 683.12 538.98 664.85 499.02 664.85 499.02 566.67 503.49 566.67 503.49 660.38 543.36 660.38" fill="#010101"/><polygon points="463.54 669.61 463.54 800.81 419.11 800.81 419.11 750.1 383.71 750.1 383.71 925.73 379.24 925.73 379.24 745.63 423.58 745.63 423.58 796.34 459.16 796.34 459.16 669.61 463.54 669.61" fill="#010101"/><polygon points="463.54 909.94 463.54 953.51 423.67 953.51 423.67 997.85 419.2 997.85 419.2 949.14 459.16 949.14 459.16 914.41 419.11 914.41 419.11 862.84 423.58 862.84 423.58 909.94 463.54 909.94" fill="#010101"/><polygon points="583.32 745.44 583.32 855.04 543.36 855.04 543.36 933.53 583.32 933.53 583.32 1055.6 578.85 1055.6 578.85 938 538.98 938 538.98 850.57 578.85 850.57 578.85 745.44 583.32 745.44" fill="#010101"/><polygon points="543.36 759.42 543.36 829.64 503.49 829.64 503.49 894.52 499.02 894.52 499.02 825.17 538.98 825.17 538.98 759.42 543.36 759.42" fill="#010101"/><polygon points="543.36 977.39 543.36 1043.9 499.02 1043.9 499.02 1011.74 463.54 1011.74 463.54 1097.18 459.16 1097.18 459.16 1007.27 503.49 1007.27 503.49 1039.42 538.98 1039.42 538.98 977.39 543.36 977.39" fill="#010101"/><rect x="339.38" y="2.28" width="4.47" height="93.05" fill="#010101"/><polygon points="423.67 583.98 423.67 669.61 419.2 669.61 419.2 588.45 379.24 588.45 379.24 496.26 339.38 496.26 339.38 414.25 299.42 414.25 299.42 326.91 339.38 326.91 339.38 231.38 343.75 231.38 343.75 331.38 303.89 331.38 303.89 409.78 343.75 409.78 343.75 491.79 383.71 491.79 383.71 583.98 423.67 583.98" fill="#010101"/><rect x="501.31" y="430.99" width="79.82" height="4.47" fill="#010101"/><rect x="341.56" y="352.12" width="79.92" height="4.47" fill="#010101"/><polygon points="383.71 960.65 383.71 1120.96 379.24 1120.96 379.24 965.03 339.38 965.03 339.38 840.58 299.42 840.58 299.42 711.75 339.38 711.75 339.38 613.85 343.75 613.85 343.75 716.23 303.89 716.23 303.89 836.11 343.75 836.11 343.75 960.65 383.71 960.65" fill="#010101"/><rect x="339.38" y="743.15" width="4.47" height="62.89" fill="#010101"/><path d="M274.01,818.31c0,6.75-5.52,12.18-12.18,12.18s-12.27-5.52-12.27-12.18,5.52-12.27,12.27-12.27,12.18,5.52,12.18,12.27ZM253.94,818.31c0,4.38,3.43,7.8,7.8,7.8s7.71-3.52,7.71-7.8-3.43-7.9-7.71-7.9-7.8,3.52-7.8,7.9Z" fill="#010101"/><path d="M353.84,818.31c0,6.75-5.52,12.18-12.18,12.18s-12.27-5.52-12.27-12.18,5.52-12.27,12.27-12.27,12.18,5.52,12.18,12.27ZM333.76,818.31c0,4.38,3.43,7.8,7.8,7.8s7.71-3.52,7.71-7.8-3.43-7.9-7.71-7.9-7.8,3.52-7.8,7.9Z" fill="#010101"/><path d="M353.84,730.97c0,6.75-5.52,12.18-12.18,12.18s-12.27-5.42-12.27-12.18,5.52-12.27,12.27-12.27,12.18,5.52,12.18,12.27ZM333.76,730.97c0,4.38,3.43,7.8,7.8,7.8s7.71-3.52,7.71-7.8-3.43-7.9-7.71-7.9-7.8,3.52-7.8,7.9Z" fill="#010101"/><path d="M667.05,388.94c0,6.75-5.42,12.18-12.18,12.18s-12.27-5.52-12.27-12.18,5.52-12.27,12.27-12.27,12.18,5.52,12.18,12.27ZM646.97,388.94c0,4.38,3.52,7.8,7.9,7.8s7.71-3.52,7.71-7.8-3.43-7.8-7.71-7.8-7.9,3.43-7.9,7.8Z" fill="#010101"/><path d="M667.05,303.78c0,6.75-5.42,12.18-12.18,12.18s-12.27-5.52-12.27-12.18,5.52-12.27,12.27-12.27,12.18,5.52,12.18,12.27ZM646.97,303.78c0,4.38,3.52,7.8,7.9,7.8s7.71-3.52,7.71-7.8-3.43-7.8-7.71-7.8-7.9,3.52-7.9,7.8Z" fill="#010101"/><path d="M980.82,303.78c0,6.75-5.42,12.18-12.18,12.18s-12.27-5.52-12.27-12.18,5.52-12.27,12.27-12.27,12.18,5.52,12.18,12.27ZM960.85,303.78c0,4.38,3.43,7.8,7.9,7.8s7.71-3.52,7.71-7.8-3.33-7.8-7.71-7.8-7.9,3.52-7.9,7.8Z" fill="#010101"/><path d="M980.82,388.84c0,6.75-5.42,12.18-12.18,12.18s-12.27-5.52-12.27-12.18,5.52-12.27,12.27-12.27,12.18,5.52,12.18,12.27ZM960.85,388.84c0,4.38,3.43,7.8,7.9,7.8s7.71-3.52,7.71-7.8-3.33-7.8-7.71-7.8-7.9,3.43-7.9,7.8Z" fill="#010101"/><path d="M274.01,730.97c0,6.75-5.52,12.18-12.18,12.18s-12.27-5.42-12.27-12.18,5.52-12.27,12.27-12.27,12.18,5.52,12.18,12.27ZM253.94,730.97c0,4.38,3.43,7.8,7.8,7.8s7.71-3.52,7.71-7.8-3.43-7.9-7.71-7.9-7.8,3.52-7.8,7.9Z" fill="#010101"/></g></g><g id="f"><path d="M375.91,263.55c0-1.42,1.15-2.57,2.57-2.57s1.71.47,2.19,1.15c34.54,53.38,54.42,104.66,115.12,157.08l19.5-7.99,8.57-36.15c1.15-4.47,7.04.19,9.32.86,18.93-25.79,24.73-23.12,17.6,7.99,1.9,1.52,11.23,3.05,9.23,7.04-.29.67-18.36,25.97-18.75,26.64l8.94,32.83,80.59,39.96,113.79,19.5c1.42.29,2.37,1.62,2.1,2.95,0,.67-.47,1.24-.95,1.62l-50.14,42.82c-.86,1.15-65.27,12.37-66.51,12.93-2.57-.29-80.77-14.75-82.96-16.18l-37.11-30.26,12.84,61.17c.29,1.33-.47,2.66-1.81,3.05l-36.91,11.8c-.47,0-.86.19-1.33,0h0l-59.09-13.04c-.76-.19-1.42-.67-1.71-1.33-.47-1.15-29.69-47.57-29.87-48.81h0l-7.04-37.01c-.29-1.33.57-2.66,1.9-2.95l63.36-17.03-46.23-35.01c-.67,0-1.24-.38-1.71-.95l-30.07-34.63c-.47-.47-.67-1.15-.67-1.81,1.71-33.87,4.28-109.13,5.23-143.66h.03Z" fill="#bed431"/><polygon points="433.76 572.56 496.07 522.7 462.02 528.23 433.76 572.56 433.76 572.56" fill="#bed431"/><polygon points="504.17 516.24 505.59 515.1 537.18 464.87 469.63 521.76 504.17 516.24" fill="#bed431"/><polygon points="504.83 529.27 486.18 593.4 516.34 583.7 504.83 529.27 504.83 529.27" fill="#bed431"/><polygon points="480.57 594.26 500.54 525.75 429.1 582.94 480.57 594.26" fill="#bed431"/><polygon points="453.65 490.55 430.91 567.42 458.12 524.61 453.65 490.55 453.65 490.55" fill="#bed431"/><polygon points="422.43 577.98 448.69 489.22 396.93 536.6 422.43 577.98 422.43 577.98" fill="#bed431"/><polygon points="395.22 531.09 444.22 486.37 389.51 501.02 395.22 531.09 395.22 531.09" fill="#bed431"/><polygon points="547.92 548.87 618.72 497.79 512.34 519.86 547.92 548.87 547.92 548.87" fill="#bed431"/><polygon points="511.96 514.72 622.24 491.79 549.07 455.44 511.96 514.72 511.96 514.72" fill="#bed431"/><polygon points="627.38 497.88 554.21 550.68 626.14 564.48 627.38 497.88 627.38 497.88 627.38 497.88" fill="#bed431"/><polygon points="688.64 553.72 632.51 498.83 631.27 564.48 688.64 553.72" fill="#bed431"/><polygon points="637.74 496.73 694.07 551.82 738.3 514.05 637.74 496.73 637.74 496.73" fill="#bed431"/><path d="M538.03,378.1l7.9,3.61,4.38-19.98-12.27,16.46h0v-.09Z" fill="#bed431"/><path d="M546.88,387.8c-3.71-1.62-15.23-6.85-18.65-8.46l-8.08,34.16-.19,15.5,16.74-13.79,17.22-24.36-6.85-3.14h-.19v.09h0Z" fill="#bed431"/><polygon points="486.28 438.32 457.64 481.41 461.92 514.05 486.28 438.32 486.28 438.32" fill="#bed431"/><path d="M543.65,452.69l-47.67-27.4-29.87,92.76,77.54-65.36h0Z" fill="#bed431"/><polygon points="501.4 422.43 514.73 430.13 514.91 417.01 501.4 422.43 501.4 422.43" fill="#bed431"/><polygon points="521.77 434.14 543.93 446.89 537.08 421.48 521.77 434.14 521.77 434.14" fill="#bed431"/><path d="M451.64,
475.05l-12.93-103.13-31.97,68.98,44.9,34.16h0Z" fill="#bed431"/><path d="M491.04,421.96c-17.6-14.75-33.39-31.49-47.09-49.86l12.75,101.42,34.34-51.57h0Z" fill="#bed431"/><polygon points="376.1 402.35 433.57 363.92 378.2 352.4 376.1 402.35 376.1 402.35 376.1 402.35" fill="#bed431"/><path d="M433.66,357.83c-19.13-27.69-34.92-57.18-52.8-85.82l-2.37,75.26c8.66,1.81,39.87,6.75,55.18,10.56h-.01Z" fill="#bed431"/><polygon points="402.75 437.28 433.95 369.82 377.15 407.78 402.75 437.28 402.75 437.28 402.75 437.28" fill="#bed431"/></g><g id="g"><path d="M375.91,263.55c0-1.42,1.15-2.57,2.57-2.66.86,0,1.71.47,2.19,1.15,8.57,13.42,16.56,26.83,24.36,40.05,5.62,9.52,13.79,25.4,34.54,55.09,11.13,15.98,28.83,38.15,56.13,61.84l19.6-7.9,8.57-36.15c.38-1.42,1.71-2.28,3.14-1.9h0c.19,0,.38.09.57.19l5.62,2.57,20.08-26.83c.86-1.15,2.48-1.42,3.61-.57.86.57,1.24,1.62.95,2.66l-7.04,32.73,7.9,3.61c1.33.57,1.9,2.1,1.33,3.43,0,.19-.19.38-.29.47l-18.46,26.17,8.94,32.83,80.59,39.96,113.79,19.5c1.42.29,2.37,1.62,2.1,2.95,0,.67-.47,1.24-.95,1.62l-50.14,42.82c-.38.29-.76.47-1.24.57l-65.27,12.37h-.95l-80.77-15.5c-.47,0-.86-.29-1.24-.67l-37.11-30.26,12.84,61.17c.29,1.33-.47,2.66-1.81,3.05l-36.91,11.8c-.47,0-.86.19-1.33,0h0l-59.09-13.04c-.76-.19-1.42-.67-1.71-1.33l-29.58-48.05c-.19-.29-.29-.57-.38-.86h0l-7.04-37.01c-.29-1.33.57-2.66,1.9-2.95l63.36-17.03-46.23-35.11c-.67,0-1.24-.47-1.71-.95l-30.07-34.63c-.47-.47-.67-1.15-.67-1.81l2.48-57.94,2.76-85.63h0v.19h.1ZM433.76,572.56l62.32-49.86-34.06,5.42-28.25,44.43h0ZM504.17,516.15l1.42-1.15,31.49-50.24-67.46,56.9,34.54-5.52h0ZM504.83,529.18l-18.65,64.12,30.16-9.61-11.51-54.42h0v-.09h0ZM480.57,594.26l19.98-68.5-71.45,57.18,51.47,11.32h0ZM453.65,490.55l-22.74,76.87,27.21-42.82-4.47-34.06h0ZM422.43,577.98l26.26-88.76-51.76,47.29,25.5,41.38h0v.09h0ZM395.22,531.09l49-44.81-54.71,14.65,5.71,30.07h0v.09ZM547.92,548.87l70.78-51.09-106.36,22.17,35.58,29.02h0v-.09h0ZM511.96,514.72l110.27-22.93-73.07-36.25-37.11,59.18h-.09.01ZM627.38,497.88l-73.17,52.8,71.93,13.79,1.24-66.6h0ZM688.55,553.72l-56.13-54.9-1.24,65.74,57.28-10.85h.09ZM637.74,496.73l56.32,55.09,44.24-37.77-100.56-17.31h0ZM538.03,378.1l7.9,3.61,4.38-19.98-12.27,16.36h0ZM546.88,387.8h-.19l-13.51-6.18h-.19c0-.09-4.67-2.19-4.67-2.19l-8.19,34.06-.19,15.5,16.74-13.79,17.22-24.36-6.85-3.14h-.19v.09h0ZM486.28,438.32l-28.63,43.1,4.28,32.63,24.36-75.74h-.01ZM543.65,452.59l-27.59-15.79h-.19c0-.09-19.88-11.51-19.88-11.51l-29.87,92.76,77.54-65.36h0v-.09h-.01ZM501.4,422.43l13.32,7.61.19-13.13-13.51,5.52h.01ZM521.77,434.14l22.27,12.75-6.85-25.4-15.32,12.66h-.09,0ZM451.64,475.05l-12.93-103.23-31.97,68.98,44.9,34.16h0v.09ZM491.04,421.96c-17.6-14.75-33.39-31.49-47.09-49.86l12.75,101.42,34.34-51.57h0ZM376.1,402.35l57.56-38.44-55.37-11.42-2.19,49.86h0ZM433.66,357.83c-11.8-17.13-22.36-35.01-33.01-53-6.47-10.94-12.93-21.88-19.79-32.83l-2.37,75.26c8.66,1.81,39.87,6.75,55.18,10.56h-.01ZM402.75,437.28l31.21-67.46-56.79,37.97,25.59,29.49h0Z" fill="#030303"/></g></g><path d="M928.28,473.72c0-58.48,43.98-100.93,102.97-100.93,30.76,0,56.19,11.95,75.51,31.27,2.29,2.29,2.29,4.58,0,6.86l-28.22,25.17c-2.29,1.78-4.58,1.78-6.86-.25-10.17-9.92-22.37-16.78-39.66-16.78-31.78,0-54.92,23.9-54.92,54.66s23.14,54.66,54.92,54.66c17.29,0,29.49-6.87,39.66-16.78,2.29-2.03,4.58-2.03,6.86-.25l28.22,25.17c2.29,2.29,2.29,4.58,0,6.86-19.32,19.32-44.75,31.27-75.51,31.27-58.98,0-102.97-42.46-102.97-100.93Z"/><path d="M1298.95,568.04l-31.27-51.1h-33.31v50.85c0,2.8-2.03,5.08-4.83,5.08h-37.63c-2.8,0-5.08-2.03-5.08-5.08v-188.39c0-2.8,2.03-4.83,4.83-4.83h82.37c47.03,0,71.7,34.58,71.7,71.19,0,25.17-11.44,49.32-34.07,62.04l34.83,56.44c2.8,4.83,1.02,8.64-4.83,8.64h-34.07c-4.07,0-6.86-1.53-8.64-4.83ZM1272.76,474.23c16.02,0,25.42-11.95,25.42-28.47s-9.41-28.48-25.42-28.48h-38.39v56.95h38.39Z"/><path d="M1411.83,374.57h38.64c3.81,0,6.61,1.53,8.64,5.08l39.15,67.63,39.41-67.63c1.78-3.56,4.83-5.08,8.64-5.08h38.65c5.34,0,5.85,3.31,3.81,7.12l-66.61,111.61v74.75c0,3.05-1.78,4.83-4.83,4.83h-37.88c-3.31,0-4.83-1.78-4.83-4.83v-74.75l-66.61-111.61c-2.03-3.81-1.53-7.12,3.81-7.12Z"/><path d="M1657.93,567.79v-188.39c0-2.8,2.03-4.83,4.83-4.83h82.37c47.03,0,71.7,34.58,71.7,71.19s-24.41,71.19-71.7,71.19h-39.66v50.85c0,2.8-2.03,5.08-4.83,5.08h-37.63c-2.8,0-5.08-2.03-5.08-5.08ZM1743.87,474.23c16.02,0,25.42-11.95,25.42-28.47s-9.41-28.48-25.42-28.48h-38.39v56.95h38.39Z"/><path d="M1877.08,412.45v-32.8c0-3.05,2.29-5.08,5.08-5.08h134.49c2.8,0,4.83,1.78,4.83,4.83v32.8c0,2.8-2.03,5.08-4.83,5.08h-44.75v150.51c0,2.8-2.03,5.08-4.83,5.08h-37.63c-2.8,0-5.08-2.03-5.08-5.08v-150.51h-42.2c-2.54,0-5.08-2.03-5.08-4.83Z"/><path d="M2077.16,473.72c0-55.93,42.97-100.93,102.71-100.93s102.46,45,102.46,100.93-42.97,100.93-102.46,100.93-102.71-45-102.71-100.93ZM2233.78,473.72c0-30.76-22.37-54.92-53.9-54.66-31.53.25-53.9,23.9-53.9,54.66s22.37,54.66,53.9,54.66,53.9-23.9,53.9-54.66Z"/><path d="M2347.92,473.72c0-58.48,43.98-100.93,102.97-100.93,30.76,0,56.19,11.95,75.51,31.27,2.29,2.29,2.29,4.58,0,6.86l-28.22,25.17c-2.29,1.78-4.58,1.78-6.86-.25-10.17-9.92-22.37-16.78-39.66-16.78-31.78,0-54.92,23.9-54.92,54.66s23.14,54.66,54.92,54.66c17.29,0,29.49-6.87,39.66-16.78,2.29-2.03,4.58-2.03,6.86-.25l28.22,25.17c2.29,2.29,2.29,4.58,0,6.86-19.32,19.32-44.75,31.27-75.51,31.27-58.98,0-102.97-42.46-102.97-100.93Z"/><path d="M2584.37,473.72c0-55.93,42.97-100.93,102.71-100.93s102.46,45,102.46,100.93-42.97,100.93-102.46,100.93-102.71-45-102.71-100.93ZM2740.98,473.72c0-30.76-22.37-54.92-53.9-54.66-31.53.25-53.9,23.9-53.9,54.66s22.37,54.66,53.9,54.66,53.9-23.9,53.9-54.66Z"/><path d="M2862.75,567.79v-188.39c0-2.54,2.03-4.83,4.83-4.83h36.36c2.29,0,4.32,1.27,5.59,3.31l69.66,114.41,69.41-114.41c1.27-2.03,3.31-3.31,5.59-3.31h36.36c2.8,0,4.83,2.29,4.83,4.83v188.39c0,2.8-2.29,5.08-4.83,5.08h-37.63c-3.05,0-5.08-2.03-5.08-5.08v-103.22l-62.04,102.21c-1.53,2.8-3.3,3.56-5.85,3.56h-1.78c-2.54,0-4.32-.76-5.85-3.56l-62.04-101.95v102.97c0,2.8-2.03,5.08-4.83,5.08h-37.63c-2.8,0-5.08-2.03-5.08-5.08Z"/><path d="M3175.97,567.79v-188.39c0-2.8,2.03-4.83,4.83-4.83h82.37c47.04,0,71.7,34.58,71.7,71.19s-24.41,71.19-71.7,71.19h-39.66v50.85c0,2.8-2.03,5.08-4.83,5.08h-37.63c-2.8,0-5.08-2.03-5.08-5.08ZM3261.9,474.23c16.02,0,25.42-11.95,25.42-28.47s-9.41-28.48-25.42-28.48h-38.39v56.95h38.39Z"/><path d="M3405.29,567.79v-188.39c0-2.8,2.03-4.83,4.83-4.83h37.63c2.8,0,5.08,2.03,5.08,4.83v150.77h73.48c2.54,0,4.83,1.78,4.83,4.83v32.8c0,2.8-2.29,5.08-4.83,5.08h-115.93c-2.8,0-5.08-2.03-5.08-5.08Z"/><path d="M3562.15,374.57h38.64c3.81,0,6.61,1.53,8.64,5.08l39.15,67.63,39.41-67.63c1.78-3.56,4.83-5.08,8.64-5.08h38.64c5.34,0,5.85,3.31,3.81,7.12l-66.61,111.61v74.75c0,3.05-1.78,4.83-4.83,4.83h-37.88c-3.3,0-4.83-1.78-4.83-4.83v-74.75l-66.61-111.61c-2.03-3.81-1.53-7.12,3.81-7.12Z"/></svg>
