<?xml version="1.0" encoding="UTF-8"?><svg id="b" xmlns="http://www.w3.org/2000/svg" xmlns:xlink="http://www.w3.org/1999/xlink" viewBox="0 0 1087.04 1087.04"><defs><clipPath id="d"><path d="M533.01,120.37s50.32,10.14,159.54,38.25c103.14,26.54,139.27,37.24,139.27,37.24,0,0,17.05,104.24-29.77,296.69-37.79,155.4-161.66,255.22-269.04,292.27-107.38-36.96-231.25-136.87-269.04-292.27-46.82-192.45-29.77-296.69-29.77-296.69,0,0,36.13-10.6,139.27-37.24,109.22-28.11,159.54-38.25,159.54-38.25Z" fill="none"/></clipPath></defs><path d="M833.04,201.55l-.62-3.84-3.75-1.07c-.36-.09-36.23-10.71-135.02-36.14-104.68-26.95-154.29-37.03-154.83-37.12l-1.25-.27-1.25.27c-.45.09-50.06,10.17-154.83,37.12-98.79,25.52-134.66,35.96-135.02,36.14l-3.75,1.07-.62,3.84c-.18,1.07-4.19,26.41-2.68,74.96,2.59,80.76,18.56,161.34,31.59,214.8,17.04,69.96,53.9,134.75,106.64,187.4,44.98,44.89,101.11,80.4,157.86,99.95l2.05.71,2.05-.71c56.85-19.63,112.89-55.15,157.86-100.04,25.25-25.17,46.94-53.1,64.43-83.08,19.1-32.66,33.29-67.73,42.21-104.32,23.56-96.73,30.16-170.18,31.59-214.8,1.52-48.55-2.5-73.89-2.68-74.96v.09Z" fill="#fff"/><path d="M841.96,193.83l-.65-3.96-3.87-1.11c-.37-.09-37.42-11.06-139.45-37.33-108.11-27.83-159.36-38.25-159.91-38.34l-1.29-.28-1.29.28c-.46.09-51.71,10.51-159.91,38.34-102.03,26.36-139.08,37.14-139.45,37.33l-3.87,1.11-.65,3.96c-.18,1.11-4.33,27.28-2.77,77.42,2.67,83.41,19.17,166.64,32.63,221.85,17.6,72.26,55.67,139.17,110.14,193.55,46.45,46.36,104.43,83.04,163.05,103.23l2.12.74,2.12-.74c58.71-20.28,116.59-56.96,163.05-103.32,26.08-25.99,48.48-54.84,66.55-85.81,19.72-33.73,34.38-69.96,43.6-107.75,24.33-99.91,31.15-175.77,32.63-221.85,1.57-50.14-2.58-76.32-2.77-77.42v.09ZM380.75,677.53c-52.81-52.72-89.68-117.52-106.73-187.47-23.96-98.62-30.78-173.28-32.26-218.62-1.2-38.16,1.01-62.4,2.03-71.52,11.98-3.41,51.8-14.56,135.03-36.04,98.44-25.35,149.41-36.13,157.98-37.88,8.48,1.75,59.54,12.63,157.98,37.88,83.23,21.38,123.05,32.63,135.03,36.04,1.11,9.03,3.32,33.37,2.03,71.52-2.67,82.12-18.99,164.24-32.26,218.62-17.05,69.96-53.92,134.75-106.73,187.47-44.52,44.43-99.91,79.73-156.04,99.45-56.13-19.72-111.52-55.02-156.04-99.45h0Z" fill="#2d2e2e"/><g id="c" opacity=".2"><g clip-path="url(#d)"><rect x="29.86" y="2.21" width="4.33" height="182.22" fill="#010101"/><path d="M43.87,195.21c0,6.54-5.35,11.89-11.89,11.89s-11.89-5.35-11.89-11.89,5.35-11.89,11.89-11.89,11.89,5.35,11.89,11.89ZM24.42,195.21c0,4.24,3.41,7.56,7.56,7.56s7.56-3.41,7.56-7.56-3.41-7.56-7.56-7.56-7.56,3.41-7.56,7.56Z" fill="#010101"/><path d="M34.1,480.2c0,6.54-5.35,11.89-11.89,11.89s-11.8-5.35-11.8-11.89,5.35-11.89,11.8-11.89,11.89,5.35,11.89,11.89ZM14.75,480.2c0,4.15,3.32,7.56,7.47,7.56s7.56-3.41,7.56-7.56-3.41-7.56-7.56-7.56-7.47,3.41-7.47,7.56Z" fill="#010101"/><path d="M82.49,289.04c0,6.54-5.35,11.89-11.89,11.89s-11.89-5.35-11.89-11.89,5.35-11.8,11.89-11.8,11.89,5.35,11.89,11.8ZM63.04,289.04c0,4.15,3.41,7.56,7.56,7.56s7.56-3.32,7.56-7.56-3.41-7.56-7.56-7.56-7.56,3.41-7.56,7.56Z" fill="#010101"/><path d="M34.1,381.12c0,6.54-5.35,11.89-11.89,11.89s-11.8-5.35-11.8-11.89,5.35-11.89,11.8-11.89,11.89,5.35,11.89,11.89ZM14.75,381.12c0,4.24,3.32,7.56,7.47,7.56s7.56-3.41,7.56-7.56-3.41-7.56-7.56-7.56-7.47,3.32-7.47,7.56Z" fill="#010101"/><path d="M34.1,419.74c0,6.54-5.35,11.89-11.89,11.89s-11.8-5.35-11.8-11.89,5.35-11.89,11.8-11.89,11.89,5.35,11.89,11.89ZM14.75,419.74c0,4.15,3.32,7.56,7.47,7.56s7.56-3.41,7.56-7.56-3.41-7.56-7.56-7.56-7.47,3.41-7.47,7.56Z" fill="#010101"/><path d="M130.88,419.74c0,6.54-5.35,11.89-11.89,11.89s-11.89-5.35-11.89-11.89,5.35-11.89,11.89-11.89,11.89,5.35,11.89,11.89ZM111.43,419.74c0,4.15,3.41,7.56,7.56,7.56s7.56-3.41,7.56-7.56-3.41-7.56-7.56-7.56-7.56,3.41-7.56,7.56Z" fill="#010101"/><path d="M285.45,163.42c0,6.54-5.35,11.8-11.8,11.8s-11.89-5.35-11.89-11.8,5.35-11.89,11.89-11.89,11.8,5.35,11.8,11.89ZM266.18,163.42c0,4.24,3.32,7.56,7.56,7.56s7.47-3.41,7.47-7.56-3.41-7.56-7.47-7.56-7.56,3.41-7.56,7.56Z" fill="#010101"/><path d="M275.86,101.94c0,6.54-5.35,11.89-11.89,11.89s-11.89-5.35-11.89-11.89,5.35-11.8,11.89-11.8,11.89,5.25,11.89,11.8ZM256.41,101.94c0,4.24,3.32,7.56,7.56,7.56s7.56-3.41,7.56-7.56-3.41-7.56-7.56-7.56-7.56,3.41-7.56,7.56Z" fill="#010101"/><path d="M275.86,214.66c0,6.54-5.35,11.8-11.89,11.8s-11.89-5.35-11.89-11.8,5.35-11.8,11.89-11.8,11.89,5.25,11.89,11.8ZM256.41,214.66c0,4.24,3.32,7.56,7.56,7.56s7.56-3.41,7.56-7.56-3.41-7.56-7.56-7.56-7.56,3.23-7.56,7.56Z" fill="#010101"/><path d="M237.15,213c0,6.54-5.35,11.8-11.8,11.8s-11.89-5.35-11.89-11.8,5.35-11.8,11.89-11.8,11.8,5.35,11.8,11.8ZM217.7,213c0,4.24,3.32,7.56,7.56,7.56s7.47-3.41,7.47-7.56-3.41-7.56-7.47-7.56-7.56,3.32-7.56,7.56Z" fill="#010101"/><path d="M237.15,390.89c0,6.54-5.35,11.8-11.8,11.8s-11.89-5.35-11.89-11.8,5.35-11.89,11.89-11.89,11.8,5.35,11.8,11.89ZM217.7,390.89c0,4.15,3.41,7.56,7.56,7.56s7.47-3.41,7.47-7.56-3.41-7.56-7.47-7.56-7.56,3.32-7.56,7.56Z" fill="#010101"/><path d="M285.45,343.24c0,6.54-5.35,11.89-11.8,11.89s-11.89-5.35-11.89-11.89,5.35-11.89,11.89-11.89,11.8,5.35,11.8,11.89ZM266.18,343.24c0,4.15,3.41,7.56,7.56,7.56s7.47-3.41,7.47-7.56-3.41-7.56-7.47-7.56-7.56,3.32-7.56,7.56Z" fill="#010101"/><path d="M188.85,343.24c0,6.54-5.35,11.89-11.89,11.89s-11.89-5.35-11.89-11.89,5.35-11.89,11.89-11.89,11.89,5.35,11.89,11.89ZM169.41,343.24c0,4.15,3.41,7.56,7.56,7.56s7.56-3.41,7.56-7.56-3.41-7.56-7.56-7.56-7.56,3.32-7.56,7.56Z" fill="#010101"/><path d="M198.44,658.55c0,6.54-5.35,11.89-11.89,11.89s-11.8-5.35-11.8-11.89,5.35-11.89,11.8-11.89,11.89,5.35,11.89,11.89ZM179.08,658.55c0,4.24,3.32,7.56,7.47,7.56s7.56-3.32,7.56-7.56-3.41-7.56-7.56-7.56-7.47,3.41-7.47,7.56Z" fill="#010101"/><path d="M198.44,310.98c0,6.54-5.35,11.8-11.8,11.8s-11.89-5.35-11.89-11.8,5.35-11.89,11.89-11.89,11.8,5.35,11.8,11.89ZM179.08,310.98c0,4.15,3.41,7.56,7.56,7.56s7.47-3.41,7.47-7.56-3.41-7.56-7.47-7.56-7.56,3.32-7.56,7.56Z" fill="#010101"/><path d="M159.82,574.95c0,6.54-5.35,11.89-11.89,11.89s-11.8-5.35-11.8-11.89,5.35-11.89,11.8-11.89,11.89,5.35,11.89,11.89ZM140.47,574.95c0,4.24,3.32,7.56,7.47,7.56s7.56-3.32,7.56-7.56-3.41-7.56-7.56-7.56-7.47,3.32-7.47,7.56Z" fill="#010101"/><path d="M159.82,638.91c0,6.54-5.35,11.89-11.89,11.89s-11.8-5.35-11.8-11.89,5.35-11.89,11.8-11.89,11.89,5.35,11.89,11.89ZM140.47,638.91c0,4.24,3.32,7.56,7.47,7.56s7.56-3.32,7.56-7.56-3.41-7.56-7.56-7.56-7.47,3.41-7.47,7.56Z" fill="#010101"/><path d="M237.15,906.48c0,6.54-5.35,11.89-11.8,11.89s-11.89-5.35-11.89-11.89,5.35-11.89,11.89-11.89,11.8,5.35,11.8,11.89h0ZM217.7,906.48c0,4.24,3.41,7.56,7.56,7.56s7.47-3.32,7.47-7.56-3.32-7.56-7.47-7.56-7.56,3.32-7.56,7.56Z" fill="#010101"/><path d="M275.86,584.63c0,6.54-5.35,11.89-11.89,11.89s-11.89-5.35-11.89-11.89,5.35-11.89,11.89-11.89,11.89,5.35,11.89,11.89ZM256.41,584.63c0,4.24,3.41,7.56,7.56,7.56s7.56-3.32,7.56-7.56-3.41-7.56-7.56-7.56-7.56,3.41-7.56,7.56Z" fill="#010101"/><path d="M198.44,826.11c0,6.54-5.35,11.89-11.8,11.89s-11.89-5.35-11.89-11.89,5.35-11.8,11.89-11.8,11.8,5.35,11.8,11.8ZM179.08,826.11c0,4.24,3.41,7.65,7.56,7.65s7.47-3.41,7.47-7.65-3.32-7.56-7.47-7.56-7.56,3.41-7.56,7.56Z" fill="#010101"/><path d="M198.44,976.44c0,6.54-5.35,11.89-11.8,11.89s-11.89-5.35-11.89-11.89,5.35-11.89,11.89-11.89,11.8,5.35,11.8,11.89ZM179.08,976.44c0,4.24,3.41,7.65,7.56,7.65s7.47-3.41,7.47-7.65-3.32-7.56-7.47-7.56-7.56,3.41-7.56,7.56Z" fill="#010101"/><path d="M82.49,543.52c0,6.54-5.35,11.89-11.89,11.89s-11.89-5.35-11.89-11.89,5.35-11.89,11.89-11.89,11.89,5.35,11.89,11.89ZM63.04,543.52c0,4.15,3.41,7.56,7.56,7.56s7.56-3.41,7.56-7.56-3.41-7.56-7.56-7.56-7.56,3.41-7.56,7.56Z" fill="#010101"/><path d="M130.88,692.37c0,6.54-5.35,11.89-11.89,11.89s-11.89-5.35-11.89-11.89,5.35-11.89,11.89-11.89,11.89,5.35,11.89,11.89ZM111.43,692.37c0,4.24,3.41,7.56,7.56,7.56s7.56-3.32,7.56-7.56-3.41-7.56-7.56-7.56-7.56,3.32-7.56,7.56Z" fill="#010101"/><path d="M82.49,726.01c0,6.54-5.35,11.89-11.89,11.89s-11.8-5.35-11.8-11.89,5.35-11.89,11.8-11.89,11.89,5.35,11.89,11.89ZM63.14,726.01c0,4.15,3.32,7.56,7.47,7.56s7.56-3.41,7.56-7.56-3.41-7.56-7.56-7.56-7.47,3.41-7.47,7.56Z" fill="#010101"/><path d="M121.2,875.51c0,6.54-5.35,11.89-11.89,11.89s-11.8-5.35-11.8-11.89,5.35-11.89,11.8-11.89,11.89,5.25,11.89,11.89ZM101.75,875.51c0,4.15,3.32,7.56,7.47,7.56s7.56-3.41,7.56-7.56-3.41-7.56-7.56-7.56-7.47,3.32-7.47,7.56Z" fill="#010101"/><path d="M82.49,937.17c0,6.54-5.35,11.89-11.89,11.89s-11.8-5.35-11.8-11.89,5.35-11.89,11.8-11.89,11.89,5.35,11.89,11.89ZM63.14,937.17c0,4.24,3.32,7.56,7.47,7.56s7.56-3.32,7.56-7.56-3.41-7.56-7.56-7.56-7.47,3.32-7.47,7.56Z" fill="#010101"/><path d="M159.82,1075.15c0,6.54-5.35,11.89-11.89,11.89s-11.8-5.35-11.8-11.89,5.35-11.89,11.8-11.89,11.89,5.35,11.89,11.89ZM140.47,1075.15c0,4.24,3.32,7.56,7.47,7.56s7.56-3.32,7.56-7.56-3.41-7.56-7.56-7.56-7.47,3.41-7.47,7.56Z" fill="#010101"/><path d="M43.87,711.82c0,6.54-5.35,11.89-11.89,11.89s-11.89-5.35-11.89-11.89,5.35-11.89,11.89-11.89,11.89,5.35,11.89,11.89ZM24.42,711.82c0,4.24,3.41,7.56,7.56,7.56s7.56-3.32,7.56-7.56-3.41-7.56-7.56-7.56-7.56,3.41-7.56,7.56Z" fill="#010101"/><path d="M43.87,1032.38c0,6.54-5.35,11.89-11.89,11.89s-11.89-5.35-11.89-11.89,5.35-11.89,11.89-11.89,11.89,5.35,11.89,11.89ZM24.42,1032.38c0,4.24,3.41,7.56,7.56,7.56s7.56-3.32,7.56-7.56-3.41-7.56-7.56-7.56-7.56,3.41-7.56,7.56Z" fill="#010101"/><path d="M82.49,671.45c0,6.54-5.35,11.89-11.89,11.89s-11.8-5.35-11.8-11.89,5.35-11.89,11.8-11.89,11.89,5.35,11.89,11.89ZM63.14,671.45c0,4.24,3.32,7.56,7.47,7.56s7.56-3.32,7.56-7.56-3.41-7.56-7.56-7.56-7.47,3.41-7.47,7.56Z" fill="#010101"/><path d="M121.2,539.19c0,6.54-5.35,11.89-11.89,11.89s-11.8-5.35-11.8-11.89,5.35-11.89,11.8-11.89,11.89,5.35,11.89,11.89ZM101.75,539.19c0,4.15,3.32,7.56,7.47,7.56s7.56-3.41,7.56-7.56-3.41-7.56-7.56-7.56-7.47,3.41-7.47,7.56Z" fill="#010101"/><path d="M121.2,145.9c0,6.54-5.35,11.8-11.89,11.8s-11.8-5.35-11.8-11.8,5.35-11.89,11.8-11.89,11.89,5.35,11.89,11.89ZM101.75,145.9c0,4.15,3.32,7.56,7.47,7.56s7.56-3.41,7.56-7.56-3.32-7.56-7.56-7.56-7.47,3.32-7.47,7.56Z" fill="#010101"/><rect x="68.48" y="2.21" width="4.33" height="278.81" 
fill="#010101"/><rect x="107.1" y="2.21" width="4.33" height="134.01" fill="#010101"/><polygon points="150.05 2.21 150.05 228.03 111.43 228.03 111.43 383.24 31.98 383.24 31.98 378.91 107.1 378.91 107.1 223.69 145.81 223.69 145.81 2.21 150.05 2.21" fill="#010101"/><polygon points="188.85 2.21 188.85 292.64 150.05 292.64 150.05 450.98 111.43 450.98 111.43 521.31 68.48 521.31 68.48 482.32 31.98 482.32 31.98 477.99 72.81 477.99 72.81 516.97 107.1 516.97 107.1 446.65 145.81 446.65 145.81 288.3 184.52 288.3 184.52 2.21 188.85 2.21" fill="#010101"/><polygon points="263.97 161.3 263.97 165.63 223.14 165.63 223.14 2.21 227.47 2.21 227.47 161.3 263.97 161.3" fill="#010101"/><rect x="223.14" y="221.39" width="4.33" height="159.73" fill="#010101"/><polygon points="188.85 319.73 188.85 492.09 150.05 492.09 150.05 565.18 145.81 565.18 145.81 487.76 184.52 487.76 184.52 319.73 188.85 319.73" fill="#010101"/><polygon points="109.22 690.25 109.22 694.58 29.86 694.58 29.86 621.22 68.48 621.22 68.48 553.01 72.81 553.01 72.81 625.55 34.1 625.55 34.1 690.25 109.22 690.25" fill="#010101"/><polygon points="111.43 548.96 111.43 644.07 72.81 644.07 72.81 661.77 68.48 661.77 68.48 639.74 107.1 639.74 107.1 548.96 111.43 548.96" fill="#010101"/><polygon points="227.47 722.33 227.47 896.8 223.14 896.8 223.14 726.66 188.85 726.66 188.85 775.78 145.81 775.78 145.81 648.68 150.05 648.68 150.05 771.45 184.52 771.45 184.52 722.33 227.47 722.33" fill="#010101"/><polygon points="188.85 835.88 188.85 885.83 150.05 885.83 150.05 919.48 188.76 919.48 188.76 966.67 184.43 966.67 184.43 923.71 145.81 923.71 145.81 881.5 184.52 881.5 184.52 835.88 188.85 835.88" fill="#010101"/><polygon points="72.81 823.99 72.81 908.69 34.1 908.69 34.1 1022.61 29.86 1022.61 29.86 904.36 68.48 904.36 68.48 828.32 29.86 828.32 29.86 722.14 34.1 722.14 34.1 823.99 72.81 823.99" fill="#010101"/><polygon points="111.43 799.38 111.43 866.57 107.1 866.57 107.1 803.71 68.48 803.71 68.48 735.69 72.81 735.69 72.81 799.38 111.43 799.38" fill="#010101"/><polygon points="150.05 975.79 150.05 1062.89 145.81 1062.89 145.81 980.12 111.43 980.12 111.43 1011.28 68.48 1011.28 68.48 946.85 72.81 946.85 72.81 1006.94 107.1 1006.94 107.1 975.79 150.05 975.79" fill="#010101"/><rect x="261.85" y="2.21" width="4.33" height="90.14" fill="#010101"/><polygon points="304.8 316.69 304.8 401.3 266.18 401.3 266.18 480.75 227.47 480.75 227.47 570.06 188.76 570.06 188.76 648.68 184.43 648.68 184.43 565.73 223.14 565.73 223.14 476.42 261.85 476.42 261.85 396.97 300.47 396.97 300.47 321.02 261.85 321.02 261.85 224.15 266.18 224.15 266.18 316.69 304.8 316.69" fill="#010101"/><rect x="31.98" y="417.52" width="77.33" height="4.33" fill="#010101"/><rect x="186.64" y="341.12" width="77.42" height="4.33" fill="#010101"/><polygon points="304.8 689.7 304.8 814.59 266.18 814.59 266.18 935.42 227.47 935.42 227.47 1086.58 223.14 1086.58 223.14 931.09 261.85 931.09 261.85 810.26 300.47 810.26 300.47 694.03 261.85 694.03 261.85 594.67 266.18 594.67 266.18 689.7 304.8 689.7" fill="#010101"/><rect x="261.85" y="719.93" width="4.33" height="60.92" fill="#010101"/><path d="M950.9,923.53c0,6.54-5.35,11.89-11.89,11.89s-11.89-5.35-11.89-11.89,5.35-11.8,11.89-11.8,11.89,5.35,11.89,11.8ZM931.46,923.53c0,4.24,3.32,7.65,7.56,7.65s7.56-3.32,7.56-7.65-3.41-7.56-7.56-7.56-7.56,3.41-7.56,7.56Z" fill="#010101"/><path d="M960.67,985.1c0,6.54-5.35,11.8-11.89,11.8s-11.89-5.25-11.89-11.8,5.35-11.89,11.89-11.89,11.89,5.35,11.89,11.89ZM941.23,985.1c0,4.15,3.32,7.56,7.56,7.56s7.56-3.41,7.56-7.56-3.32-7.65-7.56-7.65-7.56,3.41-7.56,7.65Z" fill="#010101"/><path d="M960.67,872.47c0,6.54-5.35,11.8-11.89,11.8s-11.89-5.25-11.89-11.8,5.35-11.89,11.89-11.89,11.89,5.35,11.89,11.89ZM941.23,872.47c0,4.24,3.32,7.56,7.56,7.56s7.56-3.32,7.56-7.56-3.32-7.56-7.56-7.56-7.56,3.32-7.56,7.56Z" fill="#010101"/><path d="M999.2,874.04c0,6.54-5.35,11.8-11.89,11.8s-11.89-5.35-11.89-11.8,5.35-11.89,11.89-11.89,11.89,5.35,11.89,11.89ZM979.85,874.04c0,4.15,3.41,7.56,7.56,7.56s7.65-3.23,7.65-7.56-3.32-7.56-7.65-7.56-7.56,3.32-7.56,7.56Z" fill="#010101"/><path d="M999.2,696.24c0,6.54-5.35,11.89-11.89,11.89s-11.89-5.35-11.89-11.89,5.35-11.8,11.89-11.8,11.89,5.25,11.89,11.8ZM979.85,696.24c0,4.15,3.41,7.56,7.56,7.56s7.65-3.32,7.65-7.56-3.41-7.56-7.65-7.56-7.56,3.41-7.56,7.56Z" fill="#010101"/><path d="M950.9,743.8c0,6.54-5.35,11.89-11.89,11.89s-11.89-5.35-11.89-11.89,5.35-11.89,11.89-11.89,11.89,5.35,11.89,11.89ZM931.46,743.8c0,4.24,3.32,7.56,7.56,7.56s7.56-3.32,7.56-7.56-3.41-7.56-7.56-7.56-7.56,3.41-7.56,7.56Z" fill="#010101"/><path d="M1047.68,743.8c0,6.54-5.35,11.89-11.89,11.89s-11.89-5.35-11.89-11.89,5.35-11.89,11.89-11.89,11.89,5.35,11.89,11.89ZM1028.23,743.8c0,4.24,3.32,7.56,7.56,7.56s7.56-3.32,7.56-7.56-3.41-7.56-7.56-7.56-7.56,3.41-7.56,7.56Z" fill="#010101"/><path d="M1037.91,428.49c0,6.54-5.35,11.89-11.89,11.89s-11.8-5.35-11.8-11.89,5.25-11.89,11.8-11.89,11.89,5.35,11.89,11.89h0ZM1018.56,428.49c0,4.15,3.41,7.56,7.56,7.56s7.56-3.41,7.56-7.56-3.41-7.56-7.56-7.56-7.56,3.41-7.56,7.56Z" fill="#010101"/><path d="M1037.91,776.06c0,6.54-5.35,11.89-11.89,11.89s-11.89-5.35-11.89-11.89,5.35-11.89,11.89-11.89,11.89,5.35,11.89,11.89ZM1018.46,776.06c0,4.24,3.41,7.56,7.65,7.56s7.56-3.32,7.56-7.56-3.41-7.56-7.56-7.56-7.65,3.41-7.65,7.56Z" fill="#010101"/><path d="M1076.62,512.09c0,6.54-5.35,11.89-11.89,11.89s-11.8-5.35-11.8-11.89,5.35-11.89,11.8-11.89,11.89,5.35,11.89,11.89ZM1057.27,512.09c0,4.15,3.32,7.56,7.47,7.56s7.56-3.41,7.56-7.56-3.32-7.56-7.56-7.56-7.47,3.41-7.47,7.56Z" fill="#010101"/><path d="M1076.62,448.12c0,6.54-5.35,11.89-11.89,11.89s-11.8-5.35-11.8-11.89,5.35-11.89,11.8-11.89,11.89,5.35,11.89,11.89ZM1057.27,448.12c0,4.15,3.32,7.56,7.47,7.56s7.56-3.41,7.56-7.56-3.32-7.56-7.56-7.56-7.47,3.41-7.47,7.56Z" fill="#010101"/><path d="M999.2,180.56c0,6.54-5.35,11.89-11.89,11.89s-11.89-5.35-11.89-11.89,5.35-11.89,11.89-11.89,11.89,5.35,11.89,11.89ZM979.85,180.56c0,4.15,3.41,7.56,7.56,7.56s7.65-3.41,7.65-7.56-3.41-7.56-7.65-7.56-7.56,3.41-7.56,7.56Z" fill="#010101"/><path d="M960.67,502.41c0,6.54-5.35,11.89-11.89,11.89s-11.89-5.35-11.89-11.89,5.35-11.89,11.89-11.89,11.89,5.35,11.89,11.89ZM941.23,502.41c0,4.15,3.32,7.56,7.56,7.56s7.56-3.41,7.56-7.56-3.32-7.56-7.56-7.56-7.56,3.32-7.56,7.56Z" fill="#010101"/><path d="M1037.91,260.93c0,6.54-5.35,11.89-11.89,11.89s-11.89-5.35-11.89-11.89,5.35-11.89,11.89-11.89,11.89,5.35,11.89,11.89ZM1018.46,260.93c0,4.15,3.41,7.56,7.65,7.56s7.56-3.41,7.56-7.56-3.41-7.56-7.56-7.56-7.65,3.41-7.65,7.56Z" fill="#010101"/><path d="M1037.91,110.6c0,6.54-5.35,11.89-11.89,11.89s-11.89-5.35-11.89-11.89,5.35-11.89,11.89-11.89,11.89,5.35,11.89,11.89ZM1018.46,110.6c0,4.15,3.41,7.56,7.65,7.56s7.56-3.41,7.56-7.56-3.41-7.56-7.56-7.56-7.65,3.41-7.65,7.56Z" fill="#010101"/><polygon points="989.52 921.41 989.52 1084.92 985.28 1084.92 985.28 925.74 948.69 925.74 948.69 921.41 989.52 921.41" fill="#010101"/><rect x="985.28" y="705.92" width="4.33" height="159.73" fill="#010101"/><polygon points="1066.85 521.86 1066.85 599.28 1028.23 599.28 1028.23 767.3 1023.9 767.3 1023.9 595.04 1062.52 595.04 1062.52 521.86 1066.85 521.86" fill="#010101"/><polygon points="1066.85 311.25 1066.85 438.35 1062.52 438.35 1062.52 315.59 1028.23 315.59 1028.23 364.8 985.28 364.8 985.28 190.24 989.52 190.24 989.52 360.47 1023.9 360.47 1023.9 311.25 1066.85 311.25" fill="#010101"/><polygon points="1066.85 163.32 1066.85 205.54 1028.23 205.54 1028.23 251.16 1023.9 251.16 1023.9 201.2 1062.52 201.2 1062.52 167.65 1023.9 167.65 1023.9 120.28 1028.23 120.28 1028.23 163.32 1066.85 163.32" fill="#010101"/><rect x="946.57" y="994.78" width="4.33" height="90.05" fill="#010101"/><polygon points="1028.23 438.35 1028.23 521.31 989.52 521.31 989.52 610.71 950.9 610.71 950.9 689.98 912.19 689.98 912.19 766.01 950.9 766.01 950.9 862.98 946.57 862.98 946.57 770.35 907.95 770.35 907.95 685.74 946.57 685.74 946.57 606.29 985.28 606.29 985.28 516.97 1023.9 516.97 1023.9 438.35 1028.23 438.35" fill="#010101"/><rect x="948.69" y="741.68" width="77.33" height="4.33" fill="#010101"/><polygon points="989.52 2.21 989.52 157.15 950.9 157.15 950.9 277.52 912.19 277.52 912.19 393.38 950.9 393.38 950.9 492.37 946.57 492.37 946.57 397.71 907.95 397.71 907.95 273.28 946.57 273.28 946.57 152.82 985.28 152.82 985.28 2.21 989.52 2.21" fill="#010101"/><rect x="946.57" y="306.18" width="4.33" height="60.92" fill="#010101"/><rect x="874.68" y="902.61" width="4.33" height="182.22" fill="#010101"/><path d="M888.78,891.82c0,6.54-5.35,11.89-11.89,11.89s-11.89-5.35-11.89-11.89,5.35-11.89,11.89-11.89,11.89,5.35,11.89,11.89ZM869.24,891.82c0,4.24,3.41,7.65,7.65,7.65s7.56-3.41,7.56-7.65-3.41-7.56-7.56-7.56-7.65,3.41-7.65,7.56Z" fill="#010101"/><path d="M898.37,606.84c0,6.54-5.35,11.89-11.8,11.89s-11.89-5.35-11.89-11.89,5.35-11.89,11.89-11.89,11.8,5.35,11.8,11.89ZM879.01,606.84c0,4.24,3.32,7.56,7.56,7.56s7.47-3.32,7.47-7.56-3.41-7.56-7.47-7.56-7.56,3.32-7.56,7.56Z" fill="#010101"/><path d="M850.07,798c0,6.54-5.35,11.8-11.89,11.8s-11.89-5.25-11.89-11.8,5.35-11.89,11.89-11.89,11.89,5.35,11.89,11.89ZM830.62,798c0,4.15,3.41,7.56,7.56,7.56s7.65-3.32,7.65-7.56-3.41-7.56-7.65-7.56-7.56,3.32-7.56,7.56Z" fill="#010101"/><path d="M898.37,705.92c0,6.54-5.35,11.89-11.8,11.89s-11.89-5.35-11.89-11.89,5.35-11.89,11.89-11.89,11.8,5.35,11.8,11.89ZM879.01,705.92c0,4.15,3.32,7.56,7.56,7.56s7.47-3.41,7.47-7.56-3.41-7.65-7.47-7.65-7.56,3.41-7.56,7.65Z" fill="#010101"/><path d="M646.93,923.53c0,6.54-5.35,11.89-11.89,11.89s-11.8-5.35-11.8-11.89,5.25-11.8,11.8-11.8,11.89,5.35,11.89,11.8ZM627.58,923.53c0,4.24,3.41,7.65,7.47,7.65s7.65-3.41,7.65-7.65-3.32-7.56-7.65-7.56-7.47,3.41-7.47,7.56Z" fill="#010101"/><path d="M656.61,985.01c0,6.54-5.35,11.8-11.89,11.8s-11.89-5.35-11.89-11.8,5.35-11.89,11.89-11.89,11.89,5.35,11.89,11.89ZM637.25,985.01c0,4.15,3.41,7.56,7.56,7.56s7.65-3.41,7.65-7.56-3.32-7.56-7.65-7.56-7.56,3.41-7.56,7.56Z" fill="#010101"/><path d="M656.61,872.47c0,6.54-5.35,11.8-11.89,11.8s-11.89-5.25-11.89-11.8,5.35-11.89,11.89-11.89,11.89,5.35,11.
89,11.89ZM637.25,872.47c0,4.15,3.41,7.56,7.56,7.56s7.65-3.23,7.65-7.56-3.41-7.56-7.65-7.56-7.56,3.41-7.56,7.56Z" fill="#010101"/><path d="M695.32,874.04c0,6.54-5.35,11.8-11.89,11.8s-11.8-5.35-11.8-11.8,5.25-11.89,11.8-11.89,11.89,5.35,11.89,11.89ZM675.97,874.04c0,4.15,3.32,7.56,7.47,7.56s7.56-3.23,7.56-7.56-3.41-7.56-7.56-7.56-7.47,3.32-7.47,7.56Z" fill="#010101"/><path d="M695.32,696.24c0,6.54-5.35,11.89-11.89,11.89s-11.8-5.35-11.8-11.89,5.25-11.8,11.8-11.8,11.89,5.25,11.89,11.8ZM675.97,696.24c0,4.15,3.32,7.56,7.47,7.56s7.56-3.32,7.56-7.56-3.32-7.56-7.56-7.56-7.47,3.41-7.47,7.56Z" fill="#010101"/><path d="M646.93,743.8c0,6.54-5.35,11.89-11.89,11.89s-11.8-5.25-11.8-11.89,5.25-11.89,11.8-11.89,11.89,5.35,11.89,11.89ZM627.58,743.8c0,4.15,3.41,7.56,7.47,7.56s7.65-3.23,7.65-7.56-3.41-7.56-7.65-7.56-7.47,3.41-7.47,7.56Z" fill="#010101"/><path d="M743.71,743.8c0,6.54-5.35,11.89-11.89,11.89s-11.89-5.25-11.89-11.89,5.35-11.89,11.89-11.89,11.89,5.35,11.89,11.89ZM724.26,743.8c0,4.15,3.41,7.56,7.56,7.56s7.65-3.23,7.65-7.56-3.41-7.56-7.65-7.56-7.56,3.41-7.56,7.56Z" fill="#010101"/><path d="M734.03,428.49c0,6.54-5.25,11.89-11.8,11.89s-11.89-5.35-11.89-11.89,5.35-11.89,11.89-11.89,11.8,5.35,11.8,11.89h0ZM714.58,428.49c0,4.15,3.41,7.56,7.56,7.56s7.56-3.41,7.56-7.56-3.41-7.56-7.56-7.56-7.56,3.41-7.56,7.56Z" fill="#010101"/><path d="M734.03,776.06c0,6.54-5.35,11.89-11.89,11.89s-11.8-5.35-11.8-11.89,5.35-11.89,11.8-11.89,11.89,5.35,11.89,11.89ZM714.58,776.06c0,4.24,3.41,7.56,7.47,7.56s7.65-3.32,7.65-7.56-3.32-7.56-7.65-7.56-7.47,3.41-7.47,7.56Z" fill="#010101"/><path d="M772.65,512.09c0,6.54-5.25,11.89-11.8,11.89s-11.89-5.35-11.89-11.89,5.35-11.89,11.89-11.89,11.8,5.35,11.8,11.89ZM753.29,512.09c0,4.15,3.41,7.56,7.65,7.56s7.47-3.41,7.47-7.56-3.41-7.56-7.47-7.56-7.65,3.41-7.65,7.56Z" fill="#010101"/><path d="M772.65,448.12c0,6.54-5.25,11.89-11.8,11.89s-11.89-5.35-11.89-11.89,5.35-11.89,11.89-11.89,11.8,5.35,11.8,11.89ZM753.29,448.12c0,4.15,3.41,7.56,7.65,7.56s7.47-3.41,7.47-7.56-3.41-7.56-7.47-7.56-7.65,3.41-7.65,7.56Z" fill="#010101"/><path d="M695.32,180.56c0,6.54-5.35,11.89-11.89,11.89s-11.8-5.35-11.8-11.89,5.25-11.89,11.8-11.89,11.89,5.35,11.89,11.89ZM675.97,180.56c0,4.15,3.32,7.56,7.47,7.56s7.56-3.41,7.56-7.56-3.41-7.56-7.56-7.56-7.47,3.41-7.47,7.56Z" fill="#010101"/><path d="M656.61,502.41c0,6.54-5.35,11.89-11.89,11.89s-11.89-5.35-11.89-11.89,5.35-11.89,11.89-11.89,11.89,5.35,11.89,11.89ZM637.25,502.41c0,4.15,3.41,7.56,7.56,7.56s7.65-3.41,7.65-7.56-3.41-7.56-7.65-7.56-7.56,3.32-7.56,7.56Z" fill="#010101"/><path d="M734.03,260.93c0,6.54-5.35,11.89-11.89,11.89s-11.8-5.35-11.8-11.89,5.35-11.89,11.8-11.89,11.89,5.35,11.89,11.89ZM714.58,260.93c0,4.15,3.41,7.56,7.47,7.56s7.65-3.41,7.65-7.56-3.41-7.56-7.65-7.56-7.47,3.41-7.47,7.56Z" fill="#010101"/><path d="M734.03,110.6c0,6.54-5.35,11.89-11.89,11.89s-11.8-5.35-11.8-11.89,5.35-11.89,11.8-11.89,11.89,5.35,11.89,11.89ZM714.58,110.6c0,4.15,3.41,7.56,7.47,7.56s7.65-3.41,7.65-7.56-3.41-7.56-7.65-7.56-7.47,3.41-7.47,7.56Z" fill="#010101"/><path d="M850.07,543.52c0,6.54-5.35,11.89-11.89,11.89s-11.89-5.35-11.89-11.89,5.35-11.89,11.89-11.89,11.89,5.35,11.89,11.89ZM830.62,543.52c0,4.15,3.41,7.56,7.56,7.56s7.65-3.41,7.65-7.56-3.41-7.56-7.65-7.56-7.56,3.41-7.56,7.56Z" fill="#010101"/><path d="M801.68,394.67c0,6.54-5.35,11.89-11.89,11.89s-11.89-5.35-11.89-11.89,5.35-11.89,11.89-11.89,11.89,5.35,11.89,11.89ZM782.24,394.67c0,4.15,3.32,7.56,7.56,7.56s7.56-3.41,7.56-7.56-3.41-7.56-7.56-7.56-7.56,3.41-7.56,7.56Z" fill="#010101"/><path d="M849.98,361.12c0,6.54-5.25,11.89-11.8,11.89s-11.89-5.35-11.89-11.89,5.35-11.89,11.89-11.89,11.8,5.35,11.8,11.89ZM830.62,361.12c0,4.15,3.41,7.56,7.56,7.56s7.56-3.41,7.56-7.56-3.41-7.56-7.56-7.56-7.56,3.41-7.56,7.56Z" fill="#010101"/><path d="M811.36,211.53c0,6.54-5.35,11.89-11.8,11.89s-11.89-5.35-11.89-11.89,5.35-11.89,11.89-11.89,11.8,5.35,11.8,11.89ZM792.01,211.53c0,4.24,3.32,7.56,7.56,7.56s7.47-3.41,7.47-7.56-3.32-7.56-7.47-7.56-7.56,3.41-7.56,7.56Z" fill="#010101"/><path d="M849.98,149.96c0,6.54-5.25,11.89-11.8,11.89s-11.89-5.35-11.89-11.89,5.35-11.89,11.89-11.89,11.8,5.35,11.8,11.89ZM830.62,149.96c0,4.15,3.41,7.56,7.56,7.56s7.56-3.41,7.56-7.56-3.41-7.56-7.56-7.56-7.56,3.41-7.56,7.56Z" fill="#010101"/><path d="M772.65,11.89c0,6.54-5.25,11.89-11.8,11.89s-11.89-5.35-11.89-11.89,5.35-11.89,11.89-11.89,11.8,5.35,11.8,11.89ZM753.29,11.89c0,4.15,3.41,7.56,7.65,7.56s7.47-3.41,7.47-7.56-3.41-7.56-7.47-7.56-7.65,3.32-7.65,7.56Z" fill="#010101"/><path d="M888.78,375.22c0,6.54-5.35,11.89-11.89,11.89s-11.89-5.35-11.89-11.89,5.35-11.89,11.89-11.89,11.89,5.35,11.89,11.89ZM869.24,375.22c0,4.15,3.41,7.56,7.65,7.56s7.56-3.41,7.56-7.56-3.41-7.56-7.56-7.56-7.65,3.32-7.65,7.56Z" fill="#010101"/><path d="M888.78,54.75c0,6.54-5.35,11.89-11.89,11.89s-11.89-5.35-11.89-11.89,5.35-11.89,11.89-11.89,11.89,5.35,11.89,11.89ZM869.24,54.75c0,4.15,3.41,7.56,7.65,7.56s7.56-3.41,7.56-7.56-3.41-7.56-7.56-7.56-7.65,3.41-7.65,7.56Z" fill="#010101"/><path d="M849.98,415.59c0,6.54-5.25,11.89-11.8,11.89s-11.89-5.35-11.89-11.89,5.35-11.89,11.89-11.89,11.8,5.35,11.8,11.89ZM830.62,415.59c0,4.15,3.41,7.56,7.56,7.56s7.56-3.41,7.56-7.56-3.41-7.56-7.56-7.56-7.56,3.32-7.56,7.56Z" fill="#010101"/><path d="M811.36,547.85c0,6.54-5.35,11.89-11.8,11.89s-11.89-5.35-11.89-11.89,5.35-11.89,11.89-11.89,11.8,5.35,11.8,11.89ZM792.01,547.85c0,4.15,3.32,7.56,7.56,7.56s7.47-3.41,7.47-7.56-3.32-7.56-7.47-7.56-7.56,3.41-7.56,7.56Z" fill="#010101"/><path d="M811.36,941.23c0,6.54-5.35,11.89-11.8,11.89s-11.89-5.35-11.89-11.89,5.35-11.89,11.89-11.89,11.8,5.25,11.8,11.89ZM792.01,941.23c0,4.15,3.32,7.56,7.56,7.56s7.47-3.41,7.47-7.56-3.32-7.56-7.47-7.56-7.56,3.32-7.56,7.56Z" fill="#010101"/><rect x="836.06" y="806.11" width="4.33" height="278.81" fill="#010101"/><rect x="797.35" y="950.9" width="4.33" height="134.01" fill="#010101"/><polygon points="876.8 703.8 876.8 708.13 801.68 708.13 801.68 863.34 762.97 863.34 762.97 1084.92 758.73 1084.92 758.73 859.01 797.35 859.01 797.35 703.8 876.8 703.8" fill="#010101"/><polygon points="876.8 604.72 876.8 609.05 836.06 609.05 836.06 570.06 801.68 570.06 801.68 640.48 762.97 640.48 762.97 798.73 724.26 798.73 724.26 1084.92 719.93 1084.92 719.93 794.49 758.73 794.49 758.73 636.06 797.35 636.06 797.35 565.73 840.3 565.73 840.3 604.72 876.8 604.72" fill="#010101"/><polygon points="685.64 921.41 685.64 1084.92 681.31 1084.92 681.31 925.74 644.81 925.74 644.81 921.41 685.64 921.41" fill="#010101"/><rect x="681.31" y="705.92" width="4.33" height="159.73" fill="#010101"/><polygon points="762.97 521.86 762.97 599.28 724.26 599.28 724.26 767.3 719.93 767.3 719.93 595.04 758.73 595.04 758.73 521.86 762.97 521.86" fill="#010101"/><polygon points="879.01 392.45 879.01 465.82 840.3 465.82 840.3 534.03 836.06 534.03 836.06 461.49 874.68 461.49 874.68 396.79 799.56 396.79 799.56 392.45 879.01 392.45" fill="#010101"/><polygon points="840.3 425.27 840.3 447.29 801.68 447.29 801.68 538.08 797.35 538.08 797.35 442.96 836.06 442.96 836.06 425.27 840.3 425.27" fill="#010101"/><polygon points="762.97 311.25 762.97 438.35 758.73 438.35 758.73 315.59 724.26 315.59 724.26 364.8 681.31 364.8 681.31 190.24 685.64 190.24 685.64 360.47 719.93 360.47 719.93 311.25 762.97 311.25" fill="#010101"/><polygon points="762.97 163.32 762.97 205.54 724.26 205.54 724.26 251.16 719.93 251.16 719.93 201.2 758.73 201.2 758.73 167.65 720.02 167.65 720.02 120.28 724.35 120.28 724.35 163.32 762.97 163.32" fill="#010101"/><polygon points="879.01 64.43 879.01 182.68 840.3 182.68 840.3 258.81 879.01 258.81 879.01 364.9 874.68 364.9 874.68 263.05 836.06 263.05 836.06 178.44 874.68 178.44 874.68 64.43 879.01 64.43" fill="#010101"/><polygon points="840.3 283.33 840.3 351.35 836.06 351.35 836.06 287.66 797.35 287.66 797.35 220.56 801.68 220.56 801.68 283.33 840.3 283.33" fill="#010101"/><polygon points="840.3 75.76 840.3 140.19 836.06 140.19 836.06 80.09 801.68 80.09 801.68 111.25 758.73 111.25 758.73 24.15 762.97 24.15 762.97 106.92 797.35 106.92 797.35 75.76 840.3 75.76" fill="#010101"/><rect x="642.69" y="994.78" width="4.33" height="90.05" fill="#010101"/><polygon points="724.35 438.35 724.35 521.31 685.64 521.31 685.64 610.71 646.93 610.71 646.93 689.98 608.31 689.98 608.31 766.01 646.93 766.01 646.93 862.98 642.69 862.98 642.69 770.35 603.98 770.35 603.98 685.74 642.69 685.74 642.69 606.29 681.31 606.29 681.31 516.97 720.02 516.97 720.02 438.35 724.35 438.35" fill="#010101"/><path d="M898.37,667.39c0,6.54-5.35,11.8-11.8,11.8s-11.89-5.25-11.89-11.8,5.35-11.89,11.89-11.89,11.8,5.35,11.8,11.89ZM879.01,667.39c0,4.24,3.32,7.56,7.56,7.56s7.47-3.41,7.47-7.56-3.41-7.56-7.47-7.56-7.56,3.41-7.56,7.56Z" fill="#010101"/><path d="M801.68,667.39c0,6.54-5.35,11.8-11.89,11.8s-11.89-5.25-11.89-11.8,5.35-11.89,11.89-11.89,11.89,5.35,11.89,11.89ZM782.24,667.39c0,4.24,3.32,7.56,7.56,7.56s7.56-3.41,7.56-7.56-3.41-7.56-7.56-7.56-7.56,3.41-7.56,7.56Z" fill="#010101"/><rect x="799.56" y="665.27" width="77.33" height="4.33" fill="#010101"/><path d="M360.75,957.08c0,6.54-5.35,11.8-11.8,11.8s-11.89-5.25-11.89-11.8,5.35-11.89,11.89-11.89,11.8,5.35,11.8,11.89ZM341.39,957.08c0,4.24,3.32,7.56,7.56,7.56s7.47-3.32,7.47-7.56-3.41-7.56-7.47-7.56-7.56,3.41-7.56,7.56Z" fill="#010101"/><path d="M263.97,957.08c0,6.54-5.35,11.8-11.89,11.8s-11.89-5.25-11.89-11.8,5.35-11.89,11.89-11.89,11.89,5.35,11.89,11.89ZM244.62,957.08c0,4.24,3.32,7.56,7.56,7.56s7.56-3.32,7.56-7.56-3.41-7.56-7.56-7.56-7.56,3.41-7.56,7.56Z" fill="#010101"/><rect x="261.85" y="954.87" width="77.33" height="4.33" fill="#010101"/><path d="M300.56,962.61c6.54,0,11.8,5.25,11.8,11.8s-5.35,11.8-11.8,11.8-11.89-5.35-11.89-11.8,5.35-11.8,11.89-11.8ZM300.56,981.97c4.24,0,7.56-3.32,7.56-7.56s-3.41-7.56-7.56-7.56-7.56,3.41-7.56,7.56,3.32,7.56,7.56,7.56Z" fill="#010101"/><path d="M300.56,1059.29c6.54,0,11.8,5.35,11.8,11.8s-5.35,11.89-11.8,11.89-11.89-5.35-11.89-11.89,5.35-11.8,11.89-11.8ZM300.56,1078.83c4.24,0,7.56-3.32,7.56-7.65s-3.41-7.56-7.56-7.56-7.56,3.41-7.56,7.56,3.32,7.65,7.56,7.65Z" fill="#010101"/><rect x="
298.35" y="984.18" width="4.33" height="77.24" fill="#010101"/><path d="M300.56,419.92c6.54,0,11.8,5.35,11.8,11.8s-5.35,11.89-11.8,11.89-11.89-5.35-11.89-11.89,5.35-11.8,11.89-11.8ZM300.56,439.37c4.24,0,7.56-3.32,7.56-7.56s-3.41-7.47-7.56-7.47-7.56,3.41-7.56,7.47,3.32,7.56,7.56,7.56Z" fill="#010101"/><path d="M300.56,516.61c6.54,0,11.8,5.35,11.8,11.89s-5.35,11.89-11.8,11.89-11.89-5.35-11.89-11.89,5.35-11.89,11.89-11.89ZM300.56,536.05c4.24,0,7.56-3.32,7.56-7.56s-3.41-7.56-7.56-7.56-7.56,3.41-7.56,7.56,3.32,7.56,7.56,7.56Z" fill="#010101"/><rect x="298.35" y="441.49" width="4.33" height="77.33" fill="#010101"/><path d="M907.95,451.9c6.54,0,11.89,5.35,11.89,11.8s-5.35,11.89-11.89,11.89-11.89-5.35-11.89-11.89,5.25-11.8,11.89-11.8ZM907.95,471.35c4.24,0,7.56-3.32,7.56-7.56s-3.41-7.47-7.56-7.47-7.56,3.41-7.56,7.47,3.32,7.56,7.56,7.56Z" fill="#010101"/><path d="M907.95,548.59c6.54,0,11.89,5.35,11.89,11.89s-5.35,11.89-11.89,11.89-11.89-5.35-11.89-11.89,5.25-11.89,11.89-11.89ZM907.95,568.04c4.24,0,7.56-3.32,7.56-7.56s-3.41-7.56-7.56-7.56-7.56,3.41-7.56,7.56,3.32,7.56,7.56,7.56Z" fill="#010101"/><rect x="905.83" y="473.47" width="4.33" height="77.33" fill="#010101"/><path d="M1028.23,927.68c6.54,0,11.8,5.25,11.8,11.8s-5.25,11.89-11.8,11.89-11.89-5.35-11.89-11.89,5.35-11.8,11.89-11.8ZM1028.23,947.03c4.24,0,7.56-3.32,7.56-7.56s-3.41-7.47-7.56-7.47-7.65,3.32-7.65,7.47,3.41,7.56,7.65,7.56Z" fill="#010101"/><path d="M1028.23,1024.36c6.54,0,11.8,5.35,11.8,11.89s-5.25,11.89-11.8,11.89-11.89-5.35-11.89-11.89,5.35-11.89,11.89-11.89ZM1028.23,1043.81c4.24,0,7.56-3.32,7.56-7.56s-3.41-7.65-7.56-7.65-7.65,3.41-7.65,7.65,3.41,7.56,7.65,7.56Z" fill="#010101"/><rect x="1026.11" y="949.25" width="4.33" height="77.33" fill="#010101"/><path d="M615.87,21.94c6.54,0,11.8,5.35,11.8,11.8s-5.25,11.89-11.8,11.89-11.89-5.35-11.89-11.89,5.35-11.8,11.89-11.8ZM615.87,41.29c4.24,0,7.56-3.32,7.56-7.56s-3.41-7.47-7.56-7.47-7.56,3.41-7.56,7.47,3.41,7.56,7.56,7.56Z" fill="#010101"/><path d="M615.87,118.71c6.54,0,11.8,5.35,11.8,11.89s-5.25,11.89-11.8,11.89-11.89-5.35-11.89-11.89,5.35-11.89,11.89-11.89ZM615.87,138.07c4.24,0,7.56-3.32,7.56-7.56s-3.41-7.56-7.56-7.56-7.56,3.41-7.56,7.56,3.41,7.56,7.56,7.56Z" fill="#010101"/><rect x="613.66" y="43.5" width="4.33" height="77.33" fill="#010101"/><path d="M926.85,21.94c6.54,0,11.8,5.35,11.8,11.8s-5.35,11.89-11.8,11.89-11.89-5.35-11.89-11.89,5.35-11.8,11.89-11.8ZM926.85,41.29c4.24,0,7.56-3.32,7.56-7.56s-3.32-7.47-7.56-7.47-7.56,3.41-7.56,7.47,3.41,7.56,7.56,7.56Z" fill="#010101"/><path d="M926.85,118.71c6.54,0,11.8,5.35,11.8,11.89s-5.35,11.89-11.8,11.89-11.89-5.35-11.89-11.89,5.35-11.89,11.89-11.89ZM926.85,138.07c4.24,0,7.56-3.32,7.56-7.56s-3.32-7.56-7.56-7.56-7.56,3.41-7.56,7.56,3.41,7.56,7.56,7.56Z" fill="#010101"/><rect x="924.73" y="43.5" width="4.33" height="77.33" fill="#010101"/><path d="M1059.57,21.94c6.54,0,11.8,5.35,11.8,11.8s-5.25,11.89-11.8,11.89-11.89-5.35-11.89-11.89,5.35-11.8,11.89-11.8ZM1059.57,41.29c4.24,0,7.56-3.32,7.56-7.56s-3.41-7.47-7.56-7.47-7.65,3.41-7.65,7.47,3.41,7.56,7.65,7.56Z" fill="#010101"/><path d="M1059.57,118.62c6.54,0,11.8,5.35,11.8,11.89s-5.25,11.89-11.8,11.89-11.89-5.35-11.89-11.89,5.35-11.89,11.89-11.89ZM1059.57,138.07c4.24,0,7.56-3.32,7.56-7.56s-3.41-7.56-7.56-7.56-7.65,3.41-7.65,7.56,3.41,7.56,7.65,7.56Z" fill="#010101"/><rect x="1057.36" y="43.41" width="4.33" height="77.33" fill="#010101"/><path d="M1059.57,792.65c6.54,0,11.8,5.25,11.8,11.8s-5.25,11.8-11.8,11.8-11.89-5.35-11.89-11.8,5.35-11.8,11.89-11.8ZM1059.57,812.1c4.24,0,7.56-3.32,7.56-7.56s-3.41-7.56-7.56-7.56-7.65,3.41-7.65,7.56,3.41,7.56,7.65,7.56Z" fill="#010101"/><path d="M1059.57,889.43c6.54,0,11.8,5.35,11.8,11.89s-5.25,11.89-11.8,11.89-11.89-5.35-11.89-11.89,5.35-11.89,11.89-11.89h0ZM1059.57,908.78c4.24,0,7.56-3.32,7.56-7.65s-3.41-7.56-7.56-7.56-7.65,3.41-7.65,7.56,3.41,7.65,7.65,7.65Z" fill="#010101"/><rect x="1057.36" y="814.22" width="4.33" height="77.24" fill="#010101"/><path d="M604.07,514.67c6.54,0,11.89,5.35,11.89,11.8s-5.25,11.89-11.89,11.89-11.89-5.35-11.89-11.89,5.35-11.8,11.89-11.8ZM604.07,534.03c4.24,0,7.56-3.32,7.56-7.56s-3.41-7.47-7.56-7.47-7.56,3.41-7.56,7.47,3.41,7.56,7.56,7.56Z" fill="#010101"/><path d="M604.07,611.45c6.54,0,11.89,5.35,11.89,11.89s-5.25,11.8-11.89,11.8-11.89-5.35-11.89-11.8,5.35-11.89,11.89-11.89ZM604.07,630.8c4.24,0,7.56-3.32,7.56-7.56s-3.41-7.65-7.56-7.65-7.56,3.41-7.56,7.65,3.41,7.56,7.56,7.56Z" fill="#010101"/><rect x="601.95" y="536.24" width="4.33" height="77.33" fill="#010101"/><path d="M886.57,737.72c6.54,0,11.8,5.25,11.8,11.8s-5.35,11.89-11.8,11.89-11.89-5.35-11.89-11.89,5.25-11.8,11.89-11.8ZM886.57,757.07c4.24,0,7.56-3.32,7.56-7.56s-3.41-7.56-7.56-7.56-7.56,3.41-7.56,7.56,3.32,7.56,7.56,7.56Z" fill="#010101"/><path d="M886.57,834.4c6.54,0,11.8,5.35,11.8,11.89s-5.35,11.8-11.8,11.8-11.89-5.35-11.89-11.8,5.25-11.89,11.89-11.89ZM886.57,853.94c4.24,0,7.56-3.32,7.56-7.56s-3.41-7.65-7.56-7.65-7.56,3.41-7.56,7.65,3.32,7.56,7.56,7.56Z" fill="#010101"/><rect x="884.45" y="759.29" width="4.33" height="77.33" fill="#010101"/><rect x="644.81" y="741.68" width="77.42" height="4.33" fill="#010101"/><polygon points="685.64 2.21 685.64 157.15 646.93 157.15 646.93 277.52 608.31 277.52 608.31 393.38 646.93 393.38 646.93 492.37 642.69 492.37 642.69 397.71 603.98 397.71 603.98 273.28 642.69 273.28 642.69 152.82 681.31 152.82 681.31 2.21 685.64 2.21" fill="#010101"/><rect x="642.69" y="306.18" width="4.33" height="60.92" fill="#010101"/><rect x="571.17" y="2.21" width="4.33" height="182.22" fill="#010101"/><path d="M585.18,195.21c0,6.54-5.35,11.89-11.89,11.89s-11.89-5.35-11.89-11.89,5.35-11.8,11.89-11.8,11.89,5.25,11.89,11.8ZM565.73,195.21c0,4.24,3.41,7.56,7.56,7.56s7.56-3.41,7.56-7.56-3.32-7.56-7.56-7.56-7.56,3.32-7.56,7.56Z" fill="#010101"/><path d="M594.86,480.2c0,6.54-5.25,11.89-11.8,11.89s-11.89-5.35-11.89-11.89,5.35-11.89,11.89-11.89,11.8,5.35,11.8,11.89ZM575.5,480.2c0,4.15,3.41,7.56,7.56,7.56s7.56-3.41,7.56-7.56-3.41-7.56-7.56-7.56-7.56,3.32-7.56,7.56Z" fill="#010101"/><path d="M546.56,289.13c0,6.54-5.35,11.8-11.89,11.8s-11.89-5.35-11.89-11.8,5.35-11.89,11.89-11.89,11.89,5.35,11.89,11.89ZM527.11,289.13c0,4.24,3.32,7.56,7.56,7.56s7.56-3.41,7.56-7.56-3.41-7.56-7.56-7.56-7.56,3.41-7.56,7.56Z" fill="#010101"/><path d="M594.86,381.12c0,6.54-5.25,11.89-11.8,11.89s-11.89-5.35-11.89-11.89,5.35-11.8,11.89-11.8,11.8,5.25,11.8,11.8ZM575.5,381.12c0,4.24,3.41,7.56,7.56,7.56s7.56-3.41,7.56-7.56-3.41-7.56-7.56-7.56-7.56,3.23-7.56,7.56Z" fill="#010101"/><path d="M594.86,419.74c0,6.54-5.25,11.89-11.8,11.89s-11.89-5.35-11.89-11.89,5.35-11.8,11.89-11.8,11.8,5.25,11.8,11.8ZM575.5,419.74c0,4.15,3.41,7.56,7.56,7.56s7.56-3.41,7.56-7.56-3.41-7.56-7.56-7.56-7.56,3.32-7.56,7.56Z" fill="#010101"/><path d="M498.17,419.74c0,6.54-5.35,11.89-11.89,11.89s-11.89-5.35-11.89-11.89,5.35-11.89,11.89-11.89,11.89,5.35,11.89,11.89ZM478.72,419.74c0,4.15,3.41,7.56,7.56,7.56s7.56-3.41,7.56-7.56-3.41-7.56-7.56-7.56-7.56,3.41-7.56,7.56Z" fill="#010101"/><path d="M343.42,163.42c0,6.54-5.35,11.8-11.89,11.8s-11.8-5.35-11.8-11.8,5.35-11.89,11.8-11.89,11.89,5.35,11.89,11.89ZM324.07,163.42c0,4.15,3.32,7.56,7.47,7.56s7.56-3.32,7.56-7.56-3.41-7.56-7.56-7.56-7.47,3.41-7.47,7.56Z" fill="#010101"/><path d="M353.19,101.94c0,6.54-5.35,11.89-11.89,11.89s-11.89-5.35-11.89-11.89,5.35-11.8,11.89-11.8,11.89,5.25,11.89,11.8ZM333.74,101.94c0,4.15,3.41,7.56,7.56,7.56s7.56-3.32,7.56-7.56-3.41-7.56-7.56-7.56-7.56,3.41-7.56,7.56Z" fill="#010101"/><path d="M353.19,214.66c0,6.54-5.35,11.89-11.89,11.89s-11.89-5.35-11.89-11.89,5.35-11.8,11.89-11.8,11.89,5.25,11.89,11.8ZM333.74,214.66c0,4.15,3.41,7.56,7.56,7.56s7.56-3.41,7.56-7.56-3.32-7.56-7.56-7.56-7.56,3.32-7.56,7.56Z" fill="#010101"/><path d="M391.81,213c0,6.54-5.35,11.89-11.89,11.89s-11.8-5.35-11.8-11.89,5.35-11.8,11.8-11.8,11.89,5.35,11.89,11.8ZM372.45,213c0,4.15,3.32,7.56,7.47,7.56s7.56-3.41,7.56-7.56-3.32-7.56-7.56-7.56-7.47,3.41-7.47,7.56Z" fill="#010101"/><path d="M391.81,390.89c0,6.54-5.35,11.8-11.89,11.8s-11.8-5.35-11.8-11.8,5.35-11.89,11.8-11.89,11.89,5.35,11.89,11.89ZM372.45,390.89c0,4.15,3.32,7.56,7.47,7.56s7.56-3.41,7.56-7.56-3.32-7.56-7.56-7.56-7.47,3.32-7.47,7.56Z" fill="#010101"/><path d="M343.42,343.24c0,6.54-5.35,11.89-11.89,11.89s-11.8-5.35-11.8-11.89,5.35-11.89,11.8-11.89,11.89,5.35,11.89,11.89ZM324.07,343.24c0,4.15,3.32,7.56,7.47,7.56s7.56-3.41,7.56-7.56-3.41-7.56-7.56-7.56-7.47,3.32-7.47,7.56Z" fill="#010101"/><path d="M440.2,343.24c0,6.54-5.35,11.89-11.89,11.89s-11.89-5.35-11.89-11.89,5.35-11.8,11.89-11.8,11.89,5.25,11.89,11.8ZM420.75,343.24c0,4.15,3.41,7.56,7.56,7.56s7.56-3.41,7.56-7.56-3.32-7.56-7.56-7.56-7.56,3.32-7.56,7.56h0Z" fill="#010101"/><path d="M430.52,658.55c0,6.54-5.35,11.89-11.8,11.89s-11.89-5.35-11.89-11.89,5.35-11.89,11.89-11.89,11.8,5.35,11.8,11.89ZM411.16,658.55c0,4.24,3.41,7.56,7.56,7.56s7.47-3.32,7.47-7.56-3.32-7.56-7.47-7.56-7.56,3.41-7.56,7.56Z" fill="#010101"/><path d="M430.52,310.98c0,6.54-5.35,11.8-11.89,11.8s-11.8-5.35-11.8-11.8,5.35-11.89,11.8-11.89,11.89,5.35,11.89,11.89ZM411.16,310.98c0,4.15,3.32,7.56,7.47,7.56s7.56-3.32,7.56-7.56-3.41-7.56-7.56-7.56-7.47,3.41-7.47,7.56Z" fill="#010101"/><path d="M469.14,574.95c0,6.54-5.35,11.89-11.8,11.89s-11.89-5.35-11.89-11.89,5.35-11.89,11.89-11.89,11.8,5.35,11.8,11.89ZM449.78,574.95c0,4.24,3.41,7.56,7.56,7.56s7.47-3.32,7.47-7.56-3.32-7.56-7.47-7.56-7.56,3.32-7.56,7.56Z" fill="#010101"/><path d="M469.14,638.91c0,6.54-5.35,11.89-11.8,11.89s-11.89-5.35-11.89-11.89,5.35-11.89,11.89-11.89,11.8,5.35,11.8,11.89ZM449.78,638.91c0,4.24,3.41,7.56,7.56,7.56s7.47-3.32,7.47-7.56-3.32-7.56-7.47-7.56-7.56,3.41-7.56,7.56Z" fill="#010101"/><path d="M391.81,906.48c0,6.54-5.35,11.89-11.89,11.89s-11.8-5.35-11.8-11.89,5.35-11.89,11.8-11.89,11.89,5.35,11.89,11.89h0ZM372.45,906.48c0,4.24,3.32,7.56,7.47,7.56s7.56-3.32,7.56-7.56-3.41-7.56-7.56-7.56-7.47,3.32-7.47,7.56Z" fill="#010101"/><path d="M353.19,584.63c0,6.54-5.35,11.89-11.89,11.89s-11.89-5.35-11.89-11.89,5.35-11.89,11.89-11.89,11.89,5.35,11.89,11.89ZM333.74,584.63c0,4.24,3.41,7.56,
7.56,7.56s7.56-3.32,7.56-7.56-3.41-7.56-7.56-7.56-7.56,3.41-7.56,7.56Z" fill="#010101"/><path d="M430.52,826.11c0,6.54-5.35,11.89-11.89,11.89s-11.8-5.35-11.8-11.89,5.35-11.8,11.8-11.8,11.89,5.35,11.89,11.8ZM411.16,826.11c0,4.24,3.32,7.65,7.47,7.65s7.56-3.41,7.56-7.65-3.41-7.56-7.56-7.56-7.47,3.41-7.47,7.56Z" fill="#010101"/><path d="M430.52,976.44c0,6.54-5.35,11.89-11.89,11.89s-11.8-5.35-11.8-11.89,5.35-11.89,11.8-11.89,11.89,5.35,11.89,11.89ZM411.16,976.44c0,4.24,3.32,7.65,7.47,7.65s7.56-3.41,7.56-7.65-3.41-7.56-7.56-7.56-7.47,3.41-7.47,7.56Z" fill="#010101"/><path d="M546.56,543.52c0,6.54-5.35,11.89-11.89,11.89s-11.89-5.35-11.89-11.89,5.35-11.89,11.89-11.89,11.89,5.35,11.89,11.89ZM527.11,543.52c0,4.15,3.41,7.56,7.56,7.56s7.56-3.41,7.56-7.56-3.41-7.56-7.56-7.56-7.56,3.41-7.56,7.56Z" fill="#010101"/><path d="M498.17,692.37c0,6.54-5.35,11.89-11.89,11.89s-11.89-5.35-11.89-11.89,5.35-11.89,11.89-11.89,11.89,5.35,11.89,11.89ZM478.72,692.37c0,4.24,3.41,7.56,7.56,7.56s7.56-3.32,7.56-7.56-3.41-7.56-7.56-7.56-7.56,3.32-7.56,7.56Z" fill="#010101"/><path d="M546.47,726.01c0,6.54-5.35,11.89-11.8,11.89s-11.89-5.35-11.89-11.89,5.35-11.89,11.89-11.89,11.8,5.35,11.8,11.89ZM527.11,726.01c0,4.15,3.41,7.56,7.56,7.56s7.47-3.41,7.47-7.56-3.32-7.56-7.47-7.56-7.56,3.41-7.56,7.56Z" fill="#010101"/><path d="M507.85,875.51c0,6.54-5.35,11.89-11.8,11.89s-11.89-5.35-11.89-11.89,5.35-11.89,11.89-11.89,11.8,5.25,11.8,11.89ZM488.4,875.51c0,4.15,3.41,7.56,7.56,7.56s7.47-3.41,7.47-7.56-3.32-7.56-7.47-7.56-7.56,3.32-7.56,7.56Z" fill="#010101"/><path d="M546.47,937.17c0,6.54-5.35,11.89-11.8,11.89s-11.89-5.35-11.89-11.89,5.35-11.89,11.89-11.89,11.8,5.35,11.8,11.89ZM527.11,937.17c0,4.24,3.41,7.56,7.56,7.56s7.47-3.32,7.47-7.56-3.32-7.56-7.47-7.56-7.56,3.32-7.56,7.56Z" fill="#010101"/><path d="M469.14,1075.15c0,6.54-5.35,11.89-11.8,11.89s-11.89-5.35-11.89-11.89,5.35-11.89,11.89-11.89,11.8,5.35,11.8,11.89ZM449.78,1075.15c0,4.24,3.32,7.56,7.56,7.56s7.47-3.32,7.47-7.56-3.32-7.56-7.47-7.56-7.56,3.41-7.56,7.56Z" fill="#010101"/><path d="M585.18,711.82c0,6.54-5.35,11.89-11.89,11.89s-11.89-5.35-11.89-11.89,5.35-11.89,11.89-11.89,11.89,5.35,11.89,11.89ZM565.73,711.82c0,4.24,3.41,7.56,7.56,7.56s7.56-3.32,7.56-7.56-3.32-7.56-7.56-7.56-7.56,3.41-7.56,7.56Z" fill="#010101"/><path d="M585.18,1032.38c0,6.54-5.35,11.89-11.89,11.89s-11.89-5.35-11.89-11.89,5.35-11.89,11.89-11.89,11.89,5.35,11.89,11.89ZM565.73,1032.38c0,4.24,3.41,7.56,7.56,7.56s7.56-3.32,7.56-7.56-3.32-7.56-7.56-7.56-7.56,3.41-7.56,7.56Z" fill="#010101"/><path d="M546.47,671.45c0,6.54-5.35,11.89-11.8,11.89s-11.89-5.35-11.89-11.89,5.35-11.89,11.89-11.89,11.8,5.35,11.8,11.89ZM527.11,671.45c0,4.24,3.41,7.56,7.56,7.56s7.47-3.32,7.47-7.56-3.32-7.56-7.47-7.56-7.56,3.41-7.56,7.56Z" fill="#010101"/><path d="M507.85,539.19c0,6.54-5.35,11.89-11.8,11.89s-11.89-5.35-11.89-11.89,5.35-11.89,11.89-11.89,11.8,5.35,11.8,11.89ZM488.4,539.19c0,4.15,3.41,7.56,7.56,7.56s7.47-3.41,7.47-7.56-3.32-7.56-7.47-7.56-7.56,3.41-7.56,7.56Z" fill="#010101"/><path d="M507.85,145.9c0,6.54-5.35,11.8-11.8,11.8s-11.89-5.35-11.89-11.8,5.35-11.89,11.89-11.89,11.8,5.35,11.8,11.89ZM488.4,145.9c0,4.24,3.32,7.56,7.56,7.56s7.47-3.41,7.47-7.56-3.41-7.56-7.47-7.56-7.56,3.32-7.56,7.56Z" fill="#010101"/><rect x="532.55" y="2.21" width="4.33" height="278.81" fill="#010101"/><rect x="493.84" y="2.21" width="4.33" height="134.01" fill="#010101"/><polygon points="573.38 378.91 573.38 383.24 493.84 383.24 493.84 228.03 455.22 228.03 455.22 2.21 459.46 2.21 459.46 223.69 498.17 223.69 498.17 378.91 573.38 378.91" fill="#010101"/><polygon points="573.38 477.99 573.38 482.32 536.79 482.32 536.79 521.31 493.84 521.31 493.84 450.98 455.22 450.98 455.22 292.64 416.42 292.64 416.42 2.21 420.75 2.21 420.75 288.3 459.46 288.3 459.46 446.65 498.17 446.65 498.17 516.97 532.55 516.97 532.55 477.99 573.38 477.99" fill="#010101"/><polygon points="382.13 2.21 382.13 165.63 341.3 165.63 341.3 161.3 377.8 161.3 377.8 2.21 382.13 2.21" fill="#010101"/><rect x="377.8" y="221.39" width="4.33" height="159.73" fill="#010101"/><polygon points="459.46 487.76 459.46 565.18 455.22 565.18 455.22 492.09 416.42 492.09 416.42 319.73 420.75 319.73 420.75 487.76 459.46 487.76" fill="#010101"/><polygon points="575.5 621.22 575.5 694.58 496.05 694.58 496.05 690.25 571.17 690.25 571.17 625.55 532.55 625.55 532.55 553.01 536.79 553.01 536.79 621.22 575.5 621.22" fill="#010101"/><polygon points="536.79 639.74 536.79 661.77 532.55 661.77 532.55 644.07 493.84 644.07 493.84 548.96 498.17 548.96 498.17 639.74 536.79 639.74" fill="#010101"/><polygon points="459.46 648.68 459.46 775.78 416.42 775.78 416.42 726.66 382.13 726.66 382.13 896.8 377.8 896.8 377.8 722.33 420.75 722.33 420.75 771.45 455.22 771.45 455.22 648.68 459.46 648.68" fill="#010101"/><polygon points="459.46 881.5 459.46 923.71 420.84 923.71 420.84 966.67 416.51 966.67 416.51 919.48 455.22 919.48 455.22 885.83 416.42 885.83 416.42 835.88 420.75 835.88 420.75 881.5 459.46 881.5" fill="#010101"/><polygon points="575.5 722.14 575.5 828.32 536.79 828.32 536.79 904.36 575.5 904.36 575.5 1022.61 571.17 1022.61 571.17 908.69 532.55 908.69 532.55 823.99 571.17 823.99 571.17 722.14 575.5 722.14" fill="#010101"/><polygon points="536.79 735.69 536.79 803.71 498.17 803.71 498.17 866.57 493.84 866.57 493.84 799.38 532.55 799.38 532.55 735.69 536.79 735.69" fill="#010101"/><polygon points="536.79 946.85 536.79 1011.28 493.84 1011.28 493.84 980.12 459.46 980.12 459.46 1062.89 455.22 1062.89 455.22 975.79 498.17 975.79 498.17 1006.94 532.55 1006.94 532.55 946.85 536.79 946.85" fill="#010101"/><rect x="339.18" y="2.21" width="4.33" height="90.14" fill="#010101"/><polygon points="420.84 565.73 420.84 648.68 416.51 648.68 416.51 570.06 377.8 570.06 377.8 480.75 339.18 480.75 339.18 401.3 300.47 401.3 300.47 316.69 339.18 316.69 339.18 224.15 343.42 224.15 343.42 321.02 304.8 321.02 304.8 396.97 343.42 396.97 343.42 476.42 382.13 476.42 382.13 565.73 420.84 565.73" fill="#010101"/><rect x="496.05" y="417.52" width="77.33" height="4.33" fill="#010101"/><rect x="341.3" y="341.12" width="77.42" height="4.33" fill="#010101"/><polygon points="382.13 930.63 382.13 1085.93 377.8 1085.93 377.8 934.87 339.18 934.87 339.18 814.31 300.47 814.31 300.47 689.51 339.18 689.51 339.18 594.67 343.42 594.67 343.42 693.85 304.8 693.85 304.8 809.98 343.42 809.98 343.42 930.63 382.13 930.63" fill="#010101"/><rect x="339.18" y="719.93" width="4.33" height="60.92" fill="#010101"/><path d="M275.86,792.74c0,6.54-5.35,11.8-11.8,11.8s-11.89-5.35-11.89-11.8,5.35-11.89,11.89-11.89,11.8,5.35,11.8,11.89ZM256.41,792.74c0,4.24,3.32,7.56,7.56,7.56s7.47-3.41,7.47-7.56-3.32-7.65-7.47-7.65-7.56,3.41-7.56,7.65Z" fill="#010101"/><path d="M353.19,792.74c0,6.54-5.35,11.8-11.8,11.8s-11.89-5.35-11.89-11.8,5.35-11.89,11.89-11.89,11.8,5.35,11.8,11.89ZM333.74,792.74c0,4.24,3.32,7.56,7.56,7.56s7.47-3.41,7.47-7.56-3.32-7.65-7.47-7.65-7.56,3.41-7.56,7.65Z" fill="#010101"/><path d="M353.19,708.13c0,6.54-5.35,11.8-11.8,11.8s-11.89-5.25-11.89-11.8,5.35-11.89,11.89-11.89,11.8,5.35,11.8,11.89ZM333.74,708.13c0,4.24,3.32,7.56,7.56,7.56s7.47-3.41,7.47-7.56-3.32-7.65-7.47-7.65-7.56,3.41-7.56,7.65Z" fill="#010101"/><path d="M656.61,376.79c0,6.54-5.25,11.8-11.8,11.8s-11.89-5.35-11.89-11.8,5.35-11.89,11.89-11.89,11.8,5.35,11.8,11.89ZM637.16,376.79c0,4.24,3.41,7.56,7.65,7.56s7.47-3.41,7.47-7.56-3.32-7.56-7.47-7.56-7.65,3.32-7.65,7.56Z" fill="#010101"/><path d="M656.61,294.29c0,6.54-5.25,11.8-11.8,11.8s-11.89-5.35-11.89-11.8,5.35-11.89,11.89-11.89,11.8,5.35,11.8,11.89ZM637.16,294.29c0,4.24,3.41,7.56,7.65,7.56s7.47-3.41,7.47-7.56-3.32-7.56-7.47-7.56-7.65,3.41-7.65,7.56Z" fill="#010101"/><path d="M960.58,294.29c0,6.54-5.25,11.8-11.8,11.8s-11.89-5.35-11.89-11.8,5.35-11.89,11.89-11.89,11.8,5.35,11.8,11.89ZM941.23,294.29c0,4.24,3.32,7.56,7.65,7.56s7.47-3.41,7.47-7.56-3.23-7.56-7.47-7.56-7.65,3.41-7.65,7.56Z" fill="#010101"/><path d="M960.58,376.69c0,6.54-5.25,11.8-11.8,11.8s-11.89-5.35-11.89-11.8,5.35-11.89,11.89-11.89,11.8,5.35,11.8,11.89ZM941.23,376.69c0,4.24,3.32,7.56,7.65,7.56s7.47-3.41,7.47-7.56-3.23-7.56-7.47-7.56-7.65,3.32-7.65,7.56Z" fill="#010101"/><path d="M275.86,708.13c0,6.54-5.35,11.8-11.8,11.8s-11.89-5.25-11.89-11.8,5.35-11.89,11.89-11.89,11.8,5.35,11.8,11.89ZM256.41,708.13c0,4.24,3.32,7.56,7.56,7.56s7.47-3.41,7.47-7.56-3.32-7.65-7.47-7.65-7.56,3.41-7.56,7.65Z" fill="#010101"/></g></g><g id="e"><path d="M374.57,255.31c0-1.38,1.11-2.49,2.49-2.49s1.66.46,2.12,1.11c33.46,51.71,52.72,101.39,111.52,152.17l18.89-7.74,8.3-35.02c1.11-4.33,6.82.18,9.03.83,18.34-24.98,23.96-22.4,17.05,7.74,1.84,1.47,10.88,2.95,8.94,6.82-.28.65-17.79,25.16-18.16,25.81l8.66,31.8,78.07,38.71,110.23,18.89c1.38.28,2.3,1.57,2.03,2.86,0,.65-.46,1.2-.92,1.57l-48.57,41.48c-.83,1.11-63.23,11.98-64.43,12.53-2.49-.28-78.25-14.29-80.37-15.67l-35.95-29.31,12.44,59.26c.28,1.29-.46,2.58-1.75,2.95l-35.76,11.43c-.46,0-.83.18-1.29,0h0l-57.24-12.63c-.74-.18-1.38-.65-1.66-1.29-.46-1.11-28.76-46.08-28.94-47.28h0l-6.82-35.85c-.28-1.29.55-2.58,1.84-2.86l61.38-16.5-44.79-33.92c-.65,0-1.2-.37-1.66-.92l-29.13-33.55c-.46-.46-.65-1.11-.65-1.75,1.66-32.81,4.15-105.72,5.07-139.17h0Z" fill="#bed431"/><polygon points="430.61 554.67 490.98 506.37 457.99 511.72 430.61 554.67 430.61 554.67" fill="#bed431"/><polygon points="498.82 500.11 500.2 499 530.8 450.34 465.36 505.45 498.82 500.11" fill="#bed431"/><polygon points="499.46 512.73 481.4 574.86 510.61 565.46 499.46 512.73 499.46 512.73" fill="#bed431"/><polygon points="475.96 575.69 495.31 509.32 426.1 564.72 475.96 575.69" fill="#bed431"/><polygon points="449.88 475.22 427.85 549.69 454.21 508.22 449.88 475.22 449.88 475.22" fill="#bed431"/><polygon points="419.64 559.92 445.08 473.93 394.94 519.83 419.64 559.92 419.64 559.92" fill="#bed431"/><polygon points="393.28 514.49 440.75 471.17 387.75 485.36 393.28 514.49 393.28 514.49" fill="#bed431"/><polygon points="541.21 531.72 609.79 482.23 506.74 503.61 541.21 531.72 541.21 531.72" fill="#bed431"/><polygon points="506.37 498.63 613.2 476.42 542.32 441.21 506.
37 498.63 506.37 498.63" fill="#bed431"/><polygon points="618.18 482.32 547.3 533.47 616.98 546.84 618.18 482.32 618.18 482.32 618.18 482.32" fill="#bed431"/><polygon points="677.53 536.42 623.15 483.24 621.95 546.84 677.53 536.42" fill="#bed431"/><polygon points="628.22 481.21 682.79 534.58 725.64 497.99 628.22 481.21 628.22 481.21" fill="#bed431"/><path d="M531.63,366.28l7.65,3.5,4.24-19.36-11.89,15.95h0v-.09Z" fill="#bed431"/><path d="M540.2,375.68c-3.59-1.57-14.75-6.64-18.07-8.2l-7.83,33.09-.18,15.02,16.22-13.36,16.68-23.6-6.64-3.04h-.18v.09Z" fill="#bed431"/><polygon points="481.49 424.62 453.75 466.37 457.89 497.99 481.49 424.62 481.49 424.62" fill="#bed431"/><path d="M537.07,438.54l-46.18-26.54-28.94,89.86,75.12-63.32h0Z" fill="#bed431"/><polygon points="496.14 409.23 509.05 416.69 509.23 403.98 496.14 409.23 496.14 409.23" fill="#bed431"/><polygon points="515.87 420.57 537.34 432.92 530.71 408.31 515.87 420.57 515.87 420.57" fill="#bed431"/><path d="M447.94,460.2l-12.53-99.91-30.97,66.82,43.5,33.09h0Z" fill="#bed431"/><path d="M486.1,408.77c-17.05-14.29-32.35-30.51-45.62-48.3l12.35,98.25,33.27-49.96Z" fill="#bed431"/><polygon points="374.76 389.78 430.43 352.55 376.79 341.39 374.76 389.78 374.76 389.78 374.76 389.78" fill="#bed431"/><path d="M430.52,346.65c-18.53-26.82-33.83-55.39-51.15-83.14l-2.3,72.91c8.39,1.75,38.62,6.54,53.46,10.23h0Z" fill="#bed431"/><polygon points="400.57 423.61 430.8 358.26 375.77 395.04 400.57 423.61 400.57 423.61 400.57 423.61" fill="#bed431"/></g><g id="f"><path d="M374.57,255.31c0-1.38,1.11-2.49,2.49-2.58.83,0,1.66.46,2.12,1.11,8.3,13,16.04,25.99,23.6,38.8,5.44,9.22,13.36,24.61,33.46,53.37,10.78,15.48,27.93,36.96,54.38,59.91l18.99-7.65,8.3-35.02c.37-1.38,1.66-2.21,3.04-1.84h0c.18,0,.37.09.55.18l5.44,2.49,19.45-25.99c.83-1.11,2.4-1.38,3.5-.55.83.55,1.2,1.57.92,2.58l-6.82,31.71,7.65,3.5c1.29.55,1.84,2.03,1.29,3.32,0,.18-.18.37-.28.46l-17.88,25.35,8.66,31.8,78.07,38.71,110.23,18.89c1.38.28,2.3,1.57,2.03,2.86,0,.65-.46,1.2-.92,1.57l-48.57,41.48c-.37.28-.74.46-1.2.55l-63.23,11.98h-.92l-78.25-15.02c-.46,0-.83-.28-1.2-.65l-35.95-29.31,12.44,59.26c.28,1.29-.46,2.58-1.75,2.95l-35.76,11.43c-.46,0-.83.18-1.29,0h0l-57.24-12.63c-.74-.18-1.38-.65-1.66-1.29l-28.66-46.55c-.18-.28-.28-.55-.37-.83h0l-6.82-35.85c-.28-1.29.55-2.58,1.84-2.86l61.38-16.5-44.79-34.01c-.65,0-1.2-.46-1.66-.92l-29.13-33.55c-.46-.46-.65-1.11-.65-1.75l2.4-56.13,2.67-82.95h0v.18h.09ZM430.61,554.67l60.37-48.3-33,5.25-27.37,43.04h0ZM498.82,500.02l1.38-1.11,30.51-48.67-65.35,55.12,33.46-5.35h0ZM499.46,512.64l-18.07,62.12,29.22-9.31-11.15-52.72h0v-.09ZM475.96,575.69l19.36-66.36-69.22,55.39,49.86,10.97h0ZM449.88,475.22l-22.03,74.47,26.36-41.48-4.33-33h0ZM419.64,559.92l25.44-85.99-50.14,45.81,24.7,40.09h0v.09ZM393.28,514.49l47.47-43.41-53,14.19,5.53,29.13h0v.09ZM541.21,531.72l68.57-49.49-103.04,21.48,34.47,28.11h0v-.09ZM506.37,498.63l106.82-22.21-70.79-35.12-35.95,57.33h-.09ZM618.18,482.32l-70.88,51.15,69.68,13.36,1.2-64.52h0ZM677.44,536.42l-54.38-53.18-1.2,63.69,55.49-10.51h.09ZM628.22,481.21l54.56,53.37,42.86-36.59-97.42-16.77h0ZM531.63,366.28l7.65,3.5,4.24-19.36-11.89,15.85h0ZM540.2,375.68h-.18l-13.09-5.99h-.18c0-.09-4.52-2.12-4.52-2.12l-7.93,33-.18,15.02,16.22-13.36,16.68-23.6-6.64-3.04h-.18v.09ZM481.49,424.62l-27.74,41.75,4.15,31.61,23.6-73.37h0ZM537.07,438.45l-26.73-15.3h-.18c0-.09-19.26-11.15-19.26-11.15l-28.94,89.86,75.12-63.32h0v-.09ZM496.14,409.23l12.9,7.37.18-12.72-13.09,5.35h0ZM515.87,420.57l21.57,12.35-6.64-24.61-14.84,12.26h-.09ZM447.94,460.2l-12.53-100-30.97,66.82,43.5,33.09h0v.09ZM486.1,408.77c-17.05-14.29-32.35-30.51-45.62-48.3l12.35,98.25,33.27-49.96ZM374.76,389.78l55.76-37.24-53.64-11.06-2.12,48.3h0ZM430.52,346.65c-11.43-16.59-21.66-33.92-31.98-51.34-6.27-10.6-12.53-21.2-19.17-31.8l-2.3,72.91c8.39,1.75,38.62,6.54,53.46,10.23h0ZM400.57,423.61l30.23-65.35-55.02,36.78,24.79,28.57h0Z" fill="#030303"/></g></svg>
